# https://github.com/mikedh/trimesh

o 01_01r.off
v 0.78829774 -0.95408812 -0.34826246
v 0.88747049 -1.15735656 -0.46727483
v 1.09247859 -1.01529832 -0.31485529
v 0.96288465 -0.85916613 -0.19527556
v 1.37934940 -1.38704519 -0.59965725
v 1.57282753 -1.39288836 -0.82790600
v 1.71297255 -1.06920262 -0.60707959
v 1.55126677 -1.12089425 -0.43736262
v 1.11043030 -0.70570686 -0.14514155
v 1.23349755 -0.87782364 -0.23042924
v 1.20836971 -0.54110911 -0.25616607
v 1.07667000 -0.36127044 -0.19495257
v 1.02899063 -0.51176248 -0.08385780
v 0.99620486 -0.22645500 -0.11937113
v 1.07562201 -0.29954933 -0.46764899
v 0.87928763 -0.13068257 -0.28576753
v 0.55987575 -0.33193653 -0.82046124
v 0.30146660 -0.41684727 -0.93202507
v 0.18939439 -0.21474524 -0.63308195
v 0.47416108 -0.16556581 -0.53216499
v -0.13927126 -0.52533223 -0.81339364
v 0.02214032 -0.32981583 -0.69528593
v 0.13786037 -0.51962665 -1.02044610
v -0.02231950 -0.68853677 -1.10603762
v 0.50314544 -1.09662519 -0.59590504
v 0.54498167 -1.29727703 -0.74610786
v 0.65866819 -1.25012313 -0.64898858
v 0.61003193 -1.05430304 -0.52494810
v 1.43370154 -0.41702235 -0.49594292
v 1.36284241 -0.45723929 -0.62451224
v 1.26557746 -0.43867115 -0.43834975
v 1.39228305 -0.46313126 -0.37312077
v 0.50646631 -1.84789712 -1.16395046
v 0.62058594 -1.91703985 -1.45204010
v 0.75113946 -1.86141476 -1.42606320
v 0.61467112 -1.80738983 -1.16454406
v 1.30553420 -1.68902444 -1.16848579
v 1.17777389 -1.72121808 -1.38463422
v 1.39298320 -1.56746725 -1.59882325
v 1.46553228 -1.46024132 -1.42761905
v 1.45007991 -1.57688072 -0.99187828
v 1.58689761 -1.41584774 -1.22489383
v 1.65518376 -1.24430727 -1.04126177
v 1.77556532 -0.94886439 -0.78485371
v 0.33581885 -1.98251361 -1.54681727
v 0.20816524 -1.95269598 -1.34421744
v 0.76276638 0.61686809 0.67492724
v 0.63743223 0.58683717 0.72346298
v 0.66723833 0.46708742 0.67542680
v 0.77957942 0.51550256 0.62848472
v -0.02483266 -1.68719340 -1.68910079
v -0.03617175 -1.48382758 -1.82057034
v 0.00491460 -1.61210848 -1.93143249
v 0.06398563 -1.79309794 -1.80641380
v -0.13619257 -1.54676392 -1.53090019
v -0.07976266 -1.31270424 -1.65490103
v 0.72739036 0.77669611 0.41735688
v 0.80640624 0.74021021 0.50718845
v 0.81410430 0.65058959 0.43828870
v 0.72529868 0.68465858 0.36007369
v 0.90509603 -0.67498018 -0.08116419
v 0.73669152 -0.80257084 -0.18805792
v 0.74199415 -0.35276660 0.22677707
v 0.70468951 -0.55444800 0.03321413
v 0.87536904 -0.49613942 0.03900671
v 0.88151278 -0.32019368 0.15879116
v 0.25655443 -0.76460088 -0.23921134
v 0.35191724 -0.93440040 -0.44042251
v 0.46894198 -0.86543366 -0.37031143
v 0.40301476 -0.68250986 -0.12691671
v 0.07081220 -1.10579810 -0.50795087
v -0.00184575 -0.92002279 -0.30383591
v -0.15587298 -1.03918889 -0.36115251
v -0.07390361 -1.16861699 -0.48966998
v -0.07777497 -0.52870032 0.04631048
v -0.14053686 -0.32617942 0.12868957
v -0.22002235 -0.33038880 0.09872599
v -0.15614897 -0.55326369 0.01092843
v 0.05366529 -1.71893032 -2.05442462
v 0.16288789 -1.88193578 -1.91764854
v -0.47991599 -0.88590626 -0.93559896
v -0.56482664 -1.14926326 -0.92668697
v -0.70310232 -1.01490393 -0.72413450
v -0.56925936 -0.79711409 -0.78004221
v 0.07610175 -1.27099735 -1.86558443
v 0.06629265 -1.39454005 -2.00798994
v 0.58219434 0.78985076 0.36931473
v 0.58425086 0.69990384 0.32920430
v 1.56014046 -1.07425217 -1.19271776
v 1.69658341 -0.80823608 -0.90705124
v 1.46077558 -1.21940477 -1.40913123
v 1.37905485 -1.28194380 -1.59248559
v 1.39271753 -1.34934563 -1.76958616
v 0.54378815 -0.53255908 0.08539864
v 0.61110423 -0.89617778 -0.35328573
v 0.40264927 -1.14636047 -0.63849760
v -0.25055130 -1.49481879 -0.70201018
v -0.15439113 -1.65625809 -0.88042899
v 0.03135930 -1.52322291 -0.74827650
v -0.09884757 -1.39827759 -0.62975970
v -0.57339501 -1.32808695 -0.77900686
v -0.48154252 -1.35568400 -0.61508212
v -0.58887096 -1.19981583 -0.45150391
v -0.68666520 -1.17303819 -0.59842484
v 1.56300433 -0.39228329 -0.61976957
v 1.46479283 -0.51480089 -0.78133570
v 0.06387221 -1.86676659 -1.53546710
v 0.19721999 -1.92971275 -1.65388245
v 0.28375364 -1.98637704 -1.82343412
v 0.55892289 -1.58484446 -0.92480203
v 0.69538804 -1.78460061 -1.15895365
v 0.81904474 -1.75770371 -1.09509493
v 0.62991589 -1.55520587 -0.88046810
v 1.00969690 -1.40817807 -0.57291266
v 1.15501301 -1.61137675 -0.80763056
v 1.22749777 -1.21243030 -0.39404856
v 0.94816738 -1.81929548 -1.41998763
v 0.84608855 -1.96127512 -1.62454344
v 1.04540420 -1.88176294 -1.61500923
v 0.62452510 -2.01916967 -1.68432490
v 0.42333566 -2.04070119 -1.75429695
v 0.06864559 -1.46971709 -2.19732004
v 1.20994116 -1.75845473 -1.61839199
v 1.63691731 -0.91070038 -0.34477454
v 1.70046864 -0.72593723 -0.26701502
v 1.53437615 -0.67315054 -0.23276880
v 1.45400227 -0.84485558 -0.28396935
v 0.92450538 -0.04858270 -0.03600398
v 0.94715912 -0.18620083 0.09517117
v 1.01260274 -0.37804383 -0.02041256
v 0.30283907 -1.75178690 -0.99314585
v 0.05245984 -1.84400669 -1.15829368
v 0.59572924 -0.30118442 0.26960700
v 0.72331642 0.62009136 0.30174442
v 0.82328740 0.56858022 0.37102032
v 0.85742240 0.22828566 0.14267588
v 0.74523381 0.30844193 0.07260943
v 0.46147969 -0.04823684 0.31009956
v 0.59202288 -0.14642636 0.33279481
v 0.58585120 -0.04427501 0.36081284
v 0.46818814 0.04722928 0.37722878
v -0.36052574 -0.47427186 -0.00016629
v -0.31516624 -0.65874823 -0.06894031
v 0.36556860 -0.02673742 -0.19522127
v 0.64640885 0.01015597 -0.25146494
v 0.69317650 -0.12142508 -0.45359434
v 0.11819930 -0.85974745 -0.29431146
v 0.00889598 -0.70977392 -0.11064375
v -0.08027706 -0.74649264 -0.13447541
v 0.44431795 -0.47570948 0.12253824
v 0.44495022 -0.28308520 0.26029642
v 0.33301227 -0.37572925 0.16320383
v 0.34430326 -0.53409211 0.03119973
v -0.43210853 -1.27989551 -1.16910648
v -0.44689491 -1.49850229 -1.00839847
v 0.82198341 0.67754739 0.59671775
v 0.83560367 0.57941796 0.53996403
v 0.21253163 -1.02079254 -0.49412485
v 0.77159166 -0.30741149 -0.70069005
v 0.29587063 -1.21087929 -0.67247132
v -0.46382518 -0.47615500 -0.45271336
v -0.55793673 -0.55898741 -0.37245703
v -0.55661821 -0.42858353 -0.27136691
v -0.51137764 -0.33773167 -0.36037665
v 0.42145432 0.39074829 0.56009304
v 0.53410396 0.35070374 0.63020260
v 0.51504476 0.46458341 0.66885983
v 0.40446320 0.49900920 0.59892375
v 0.72779016 -0.16045777 0.30616902
v 0.85944524 -0.13933364 0.24224376
v 0.82989589 0.00867116 0.32218812
v 0.70377931 -0.02578468 0.35963856
v 0.90890116 -0.00796599 0.15329861
v 0.88944324 0.11472566 0.23108227
v 0.39361047 0.47963134 0.43411704
v 0.45276203 0.58793144 0.29279058
v 0.44939236 0.28253429 0.12261199
v 0.42440840 0.19811589 0.29222532
v 0.10715255 -0.84084688 -1.39586626
v -0.09674396 -1.01593367 -1.43502085
v -0.22841931 -0.86921413 -1.15097646
v -0.35329741 -0.72764497 -0.88966218
v -0.44902965 -0.60854567 -0.60144370
v -0.25463879 -0.38726827 -0.59020377
v -0.35073043 -1.01799853 -1.19335944
v 0.31071067 -0.01886140 0.09889172
v 0.44476831 0.06699202 -0.02664763
v 0.33273807 0.01618149 -0.06212973
v 0.15243458 -1.31368859 -0.67871983
v 0.85437595 0.49176750 0.46554980
v 1.03087485 -0.98880243 -1.82881778
v 0.74709465 -0.97064445 -1.92525772
v 0.73268050 -0.87182104 -1.74466677
v 1.03805223 -0.90884895 -1.62682474
v 0.69102844 0.34062975 0.63477488
v 0.81302224 0.40142305 0.57618287
v -0.47669810 -0.68204399 -0.12042819
v -0.47889903 -0.51546696 -0.07582320
v -0.54506138 -0.47757725 -0.12546076
v -0.61797893 -0.64913357 -0.16841006
v -0.17176090 -1.13350623 -1.46327904
v -0.78073889 -0.91096876 -0.63973839
v -0.66709503 -0.73169692 -0.69164854
v 0.03512267 -1.14308701 -1.68211589
v 0.20382136 -0.97796056 -1.66476944
v 0.26482022 -1.08288792 -1.86230680
v -0.07347406 -0.13914340 -0.37149886
v 0.23617701 -0.69312415 -1.32383508
v 0.33768643 -0.86745150 -1.60315767
v 0.41985051 -0.99147247 -1.83473262
v 0.45551120 -1.07635884 -2.01254124
v 0.28634925 -1.17083001 -2.02531397
v 0.56820058 0.62920544 0.27805331
v 0.43932726 0.66622054 0.33941904
v 0.29106385 -1.24324553 -2.23279724
v 0.48803355 -1.14607889 -2.20245830
v 0.51013496 -0.77283532 -1.53325271
v 0.72909515 -0.69475427 -1.42753546
v 0.40275358 -0.61659836 -1.25605751
v 0.61980002 -0.52042956 -1.12782989
v 0.14635268 -0.06729825 -0.41655457
v 0.36532953 0.91517244 0.59003593
v 0.36173821 0.67633776 0.49441765
v 0.37708793 0.61162165 0.62555510
v 0.34358379 0.86526693 0.68079737
v 0.37887592 0.56993982 0.47352636
v 0.43394591 0.74223713 0.38111138
v 0.87545326 -0.51169538 -0.98724231
v 0.29544062 -0.18084659 0.24379713
v 1.02994825 -0.75387435 -1.27696960
v 1.16202338 -0.42652593 -0.77714166
v 1.27976943 -0.63589750 -0.97862470
v 1.25558698 -0.99910278 -1.53618179
v 1.37325114 -0.88451425 -1.25676798
v 1.25923756 -1.16618586 -1.88623130
v 1.23461766 -1.07461854 -1.71182212
v 1.50723421 -0.73571368 -1.02648149
v 0.66014840 0.82849418 0.80743770
v 0.53375519 0.78508778 0.82189674
v 1.05825057 -1.06401792 -2.00736853
v 1.36307786 -1.01165821 -0.31771700
v 0.28849671 -1.48918878 -0.82055685
v 0.38815917 -1.40254783 -0.80547798
v -0.07691076 -1.73719794 -0.98950514
v 0.15664454 -1.62344259 -0.85451309
v 0.74419992 0.89063175 0.73419982
v -0.17875880 -0.16847928 0.08573663
v -0.19472359 -0.21033665 0.03827185
v 1.79328266 -0.88330952 -0.47740519
v 1.82858952 -0.73524013 -0.39028644
v 1.81707243 -0.51896497 -0.60637988
v 1.87636603 -0.64344577 -0.50996681
v 1.84550732 -0.78386423 -0.63895217
v 1.77194541 -0.65768239 -0.74547138
v 0.49936051 -1.60694349 -0.94721517
v 0.41908399 -1.65048214 -0.95572048
v -0.28556872 -1.42795502 -1.36046360
v -0.29646162 -1.63616724 -1.19102540
v 0.86855820 0.09029672 0.04795629
v 0.80280366 0.03025354 -0.15046776
v 0.74929567 0.16321920 -0.03773183
v 0.58714772 0.30621275 0.03752091
v 0.28521038 -0.04962442 0.22170646
v 0.42235583 0.03578305 0.20821935
v 0.97507589 -1.69160128 -0.94734792
v 0.77949950 -1.50232634 -0.75634079
v 1.33151046 -0.74105933 -0.25319988
v 1.40331946 -0.57673832 -0.25947559
v 0.20943164 -0.62835088 -0.06765314
v -0.08074652 0.00761383 -0.20644239
v 0.10016794 0.08910262 -0.24233122
v 0.14908243 -0.45893062 0.08890865
v 0.68783631 0.99532199 0.56976910
v 0.74946800 0.94811325 0.66373332
v 0.59697755 0.16181745 -0.07576883
v -0.24962439 -0.85695256 -0.17520691
v -0.15647738 -0.17721264 -0.27634378
v -0.16544091 -0.06695903 -0.08269666
v -0.76034766 -1.06371316 -0.50944034
v 0.78476638 -1.07188842 -2.10977712
v 0.47487177 0.58689690 0.71492161
v 0.41663063 0.78140957 0.79009094
v 0.42389434 0.95291569 0.51439835
v 0.55471015 0.98787678 0.48307075
v -0.11240060 -1.75611665 -1.33695968
v 0.45071008 -1.34365866 -0.78860027
v 1.61131767 -0.58270830 -0.85193669
v 1.69214352 -0.43427283 -0.66017887
v 0.08778072 -0.30866654 0.17803821
v -0.55712848 -0.62522708 -0.55010262
v -0.33693375 -0.27853561 -0.46334964
v -0.38399136 -0.17973078 -0.38948560
v -0.27824226 -0.10555706 -0.27205630
v -0.24243678 -0.09700887 -0.08890604
v 0.41476194 1.04335109 0.59596691
v 0.53839012 1.07409957 0.57124149
v 0.65994639 1.08113631 0.65106724
v 0.71246426 1.04133726 0.73106220
v 0.70143558 0.96199353 0.79389059
v 0.34371931 1.02380424 0.66079967
v 0.32339159 0.98467216 0.73615369
v 0.38994213 0.87707544 0.81812700
v 0.31341646 1.10819510 0.72936706
v 0.38201809 1.20324333 0.69456953
v 0.61321542 1.31286088 0.86811732
v 0.61684893 1.24147649 0.75844573
v 0.57890024 1.28587420 0.76500449
v 0.55822884 1.36014497 0.84712845
v 0.51175388 1.44813295 0.90989971
v 0.57487865 1.40690237 0.94526110
v 0.50502640 1.24305978 0.70292209
v 0.46346369 1.34994522 0.80057838
v 0.36698536 1.32545296 0.79656794
v 0.34048914 1.42247466 0.86814279
v 0.42494937 1.45103889 0.87046401
v 0.40446471 1.25789586 0.72565544
v 0.50789034 1.21122187 0.67348468
v 0.50172882 1.46974260 0.98574417
v 0.47547617 1.49176933 0.93977267
v 0.40214579 1.48769951 0.92099640
v 0.39090284 1.49738889 0.98812162
v 0.68501258 1.12129378 0.80288519
v 0.63292645 1.27618733 0.91328578
v 0.55908569 1.35702610 0.99748891
v 0.48694497 1.42617475 1.03145770
v 0.58653986 1.22837817 0.98256798
v 0.52119521 1.31044288 1.02882363
v 0.45082217 1.36480085 1.05959974
v 0.50668455 1.18812759 1.02508129
v 0.46066387 1.27476100 1.05072802
v 0.60282888 0.96498665 0.88077766
v 0.67943610 1.01056940 0.84015835
v 0.42975903 1.32222395 1.07628864
v 0.37251647 1.46734667 1.02299894
v 0.31079637 1.25927052 0.79877394
v 0.29209316 1.37691881 0.90419924
v 0.28305525 1.22268523 0.83133852
v 0.25798944 1.34036456 0.93316727
v 0.29163017 1.45938661 0.95353878
v 0.33827705 1.46431839 0.91545083
v 0.62368593 0.88046322 0.83274188
v 0.48799602 0.85088938 0.84305899
v 0.46350893 0.92926387 0.88363884
v 0.39966217 1.15532384 1.02839283
v 0.36234506 0.95687554 0.86130266
v 0.29331647 1.06779653 0.80145797
v 0.27180914 1.19883124 0.89417431
v 0.29982109 1.16705396 0.96235399
v 0.26659904 1.29319079 0.97194964
v 0.30397274 1.26354627 1.00919158
v 0.37806752 1.25381797 1.05484322
v 0.29222943 1.36401387 1.02574809
v 0.28061831 1.42186042 0.98714745
v 0.36535871 1.39656503 1.05541529
v 0.30765918 1.32112447 1.03896265
v 0.37228640 1.33402941 1.05797581
v -0.21864957 0.51718434 0.66952672
v -0.35450704 0.45748217 0.64765323
v -0.29244042 0.37011389 0.58158726
v -0.17870880 0.42353643 0.61381440
v -0.15080311 0.73949193 0.44523622
v -0.11675421 0.66398265 0.56561403
v -0.05920782 0.59297463 0.51046747
v -0.10654528 0.66681576 0.37112509
v -0.27366895 0.73599634 0.33689783
v -0.22679194 0.65712279 0.26113787
v -0.04805148 0.58959887 0.29585489
v -0.00060074 0.49732087 0.43300401
v 0.20302195 0.11468431 0.15271777
v 0.16405639 0.23027778 0.02074799
v -0.12185561 -0.14524795 0.20497811
v -0.16173104 -0.07684457 0.15506394
v -0.15637159 0.58063764 0.64078386
v -0.10265714 0.50223005 0.58282087
v -0.41691297 0.27774521 0.39296801
v -0.33887663 0.24310298 0.49192866
v -0.39921913 0.35454519 0.53963974
v -0.47266255 0.39598745 0.43586301
v 0.14531810 -0.06344191 0.24001044
v 0.01834995 -0.13783457 0.22368625
v 0.17671449 0.01777653 0.22112550
v -0.42964641 0.37342318 0.26883177
v -0.35692754 0.48976596 0.17556579
v -0.14765033 0.17992388 -0.08598308
v -0.21197223 0.07305172 0.00889939
v -0.03049398 0.40425373 0.52953418
v -0.22703801 0.26444866 0.54908049
v -0.11891250 0.30916792 0.57298901
v -0.18677761 0.57297097 0.19239695
v -0.40764784 0.58516507 0.25137591
v -0.61987014 0.78047890 0.57365805
v -0.52930002 0.56564881 0.40949956
v -0.52362529 0.49591006 0.50628325
v -0.64988895 0.72367711 0.66888284
v -0.48906586 0.47938306 0.33421591
v -0.44214763 0.65745915 0.32938748
v -0.41515531 0.75514064 0.87908494
v -0.54653157 0.70255235 0.85578957
v -0.33664959 0.81778479 0.84880269
v 0.01309141 0.25621646 -0.08713226
v -0.29214515 0.91003311 0.63590867
v -0.28625892 0.86070308 0.77791692
v -0.46342344 0.44663815 0.59864637
v -0.63035682 0.69959188 0.77793665
v -0.54926798 0.84167269 0.51870917
v -0.39365410 0.89388534 0.51165817
v -0.58996488 0.92606158 0.60295971
v -0.45389623 0.97846384 0.60800002
v -0.34815538 0.99795041 0.72738027
v -0.34239303 0.94398513 0.84625339
v -0.38463178 0.88401549 0.90587223
v -0.66259118 0.87786655 0.64981748
v -0.70381343 0.82125258 0.73794978
v -0.65680560 0.75980836 0.82859960
v -0.74608653 0.97278490 0.75855570
v -0.68776298 1.05542653 0.72819147
v -0.58730597 1.29091075 1.05933263
v -0.51514061 1.21276211 0.96783632
v -0.55453854 1.23845072 0.92516075
v -0.62240268 1.31353879 1.00403062
v -0.46054064 1.15920476 0.84318869
v -0.51712340 1.18573328 0.84151140
v -0.58841791 1.14461374 0.77113446
v -0.65260635 1.21719627 0.86947808
v -0.74469115 1.15426939 0.83536882
v -0.81317256 1.24249417 0.90535576
v -0.72508806 1.31294178 0.93882855
v -0.67680118 1.12215270 0.76894896
v -0.68537503 1.35220338 1.04463738
v -0.69808461 1.34424368 1.10608276
v -0.54845382 1.11104543 0.72704261
v -0.38753780 1.03686830 0.89416319
v -0.50593011 1.16795450 1.02559677
v -0.60486966 1.24510519 1.12063441
v -0.73745187 1.29788883 1.14766773
v -0.55315034 1.10256585 1.08524162
v -0.64940720 1.19150945 1.15361970
v -0.75981155 1.23639223 1.16090463
v -0.63350331 1.03012881 1.11657958
v -0.72548138 1.12739483 1.16522497
v -0.49013179 0.85527259 0.96899401
v -0.41282719 0.93830368 0.95364614
v -0.76560853 1.17917012 1.16404028
v -0.80066604 1.35603156 1.05377119
v -0.82952223 1.30509814 1.11023429
v -0.77604821 1.35286103 1.01657068
v -0.78085011 1.11930615 0.83686484
v -0.85099913 1.20995717 0.92947122
v -0.81860475 1.07209292 0.86486471
v -0.88558144 1.18089173 0.96835126
v -0.87621676 1.28947850 1.00013410
v -0.84459994 1.31126915 0.98100756
v -0.45986569 0.81236417 0.91546124
v -0.57594145 0.75834454 0.88584013
v -0.60357124 0.79559267 0.93363889
v -0.73664498 0.97977321 1.07551197
v -0.69436246 0.80292648 0.86659600
v -0.75782266 0.90038714 0.80659637
v -0.83075060 1.01959666 0.90661382
v -0.81247698 0.98390025 0.99172036
v -0.90342382 1.13834335 0.99649222
v -0.86781549 1.08102742 1.03751937
v -0.79944826 1.08187289 1.12755787
v -0.91101514 1.22169841 1.06442622
v -0.89850333 1.26662173 1.03010762
v -0.83500035 1.25430340 1.12957592
v -0.88766595 1.15639103 1.08517525
v -0.82695938 1.17825523 1.14235394
v -0.64113940 0.22741831 0.33050140
v -0.73832622 0.12766747 0.32122253
v -0.68994400 0.07405460 0.27771300
v -0.59307003 0.17125469 0.28911466
v -0.66829425 0.42002909 0.09628633
v -0.61791336 0.39900506 0.20212842
v -0.55419779 0.34786624 0.14285323
v -0.58834401 0.35631846 0.01773504
v -0.79298556 0.40289539 0.04127635
v -0.69886702 0.31340197 -0.07287725
v -0.50957163 0.27538112 -0.06050062
v -0.49086343 0.27526909 0.08828209
v -0.29810358 -0.01465758 -0.05521325
v -0.33881070 0.01954926 -0.21366000
v -0.61111126 0.32039701 0.27952264
v -0.55854961 0.27076659 0.23950757
v -0.80688621 -0.04537216 0.11755451
v -0.73739842 -0.03970569 0.19983161
v -0.79790308 0.02964379 0.22218764
v -0.86264036 0.03663847 0.14743243
v -0.32304333 -0.23202693 0.09486320
v -0.41148723 -0.33531260 0.03388382
v -0.30882382 -0.10504231 0.06340703
v -0.83769622 0.02121301 -0.01225619
v -0.76871153 0.11977844 -0.14210486
v -0.59687237 -0.15782684 -0.28801629
v -0.61772850 -0.26428758 -0.18976529
v -0.50171974 0.21196549 0.19976820
v -0.63263516 0.00350392 0.25639466
v -0.54448222 0.10838415 0.27018283
v -0.61727993 0.21411198 -0.14416777
v -0.83965112 0.21737257 -0.05756966
v -1.12614077 0.40921781 0.31559837
v -0.94882763 0.17012427 0.08287429
v -0.91142810 0.09581996 0.19357627
v -1.12930054 0.34151226 0.39226556
v -0.90442221 0.10704617 0.03824419
v -0.90191945 0.29094444 0.01483381
v -0.86586050 0.40820632 0.56023682
v -0.95955406 0.32187410 0.53644311
v -0.81102921 0.47246723 0.49789646
v -0.45994991 -0.03050470 -0.32228655
v -0.54846530 -0.35470320 -0.07372477
v -0.85027189 0.57648862 0.36477462
v -0.80875006 0.52900002 0.44295440
v -0.84058619 0.08141182 0.26363236
v -1.07031683 0.29956582 0.47344474
v -1.06631931 0.48573014 0.25533510
v -0.94495532 0.56206514 0.25958181
v -1.11990465 0.53906792 0.33407601
v -0.99571554 0.60655569 0.33872377
v -0.89665535 0.62818220 0.43786653
v -0.86020084 0.57605521 0.51616516
v -0.86783199 0.51601849 0.57044186
v -1.18536343 0.47353486 0.39387760
v -1.19035764 0.41831045 0.46504926
v -1.09553006 0.34038273 0.51264943
v -1.23969162 0.53220536 0.47027667
v -1.19567314 0.64793965 0.44155637
v -1.11572612 0.86356775 0.77338450
v -1.04620147 0.78761413 0.68066938
v -1.06962547 0.79466128 0.66215738
v -1.14209211 0.88072961 0.74436220
v -0.99029044 0.72586405 0.54104746
v -1.03253269 0.74795338 0.55879821
v -1.09537776 0.72715673 0.49513888
v -1.17732049 0.81226031 0.59456880
v -1.27853470 0.71294870 0.57592598
v -1.32951243 0.79447112 0.65726054
v -1.24035052 0.89163615 0.67967654
v -1.19013502 0.68586013 0.48274130
v -1.20068152 0.91515325 0.78281897
v -1.17808559 0.92897953 0.82012711
v -1.07165257 0.69820197 0.44632563
v -0.92150926 0.65377107 0.59967746
v -1.01643694 0.74568518 0.72920426
v -1.08513425 0.82168132 0.83023478
v -1.17201576 0.86041336 0.87628529
v -1.03153698 0.66646308 0.77749127
v -1.10228319 0.75013692 0.85588168
v -1.17977867 0.78663789 0.89638161
v -1.07119728 0.59965421 0.79647161
v -1.13968972 0.68041422 0.86254978
v -0.94474625 0.46551946 0.63663206
v -0.91319948 0.55841528 0.63247358
v -1.19197197 0.73268893 0.89019213
v -1.28865390 0.91990654 0.79650287
v -1.30238332 0.84483211 0.86393817
v -1.27047956 0.90919715 0.75971913
v -1.29667065 0.67315091 0.56820173
v -1.37048325 0.76025396 0.68352813
v -1.31130311 0.61248703 0.59409911
v -1.38144361 0.70124209 0.71393339
v -1.37096312 0.84163933 0.74659193
v -1.34812376 0.85221238 0.72828224
v -0.90678917 0.43142375 0.58944426
v -0.99645714 0.35629200 0.56722132
v -1.03195631 0.39446434 0.61669912
v -1.16302941 0.54332358 0.78760177
v -1.13003837 0.38073009 0.56359500
v -1.24050372 0.47855706 0.53832078
v -1.29424099 0.56525631 0.65230736
v -1.25127069 0.53815330 0.72516552
v -1.35587321 0.65392266 0.75286837
v -1.30297799 0.62069931 0.77935280
v -1.21781647 0.62797195 0.85436082
v -1.35110629 0.72801206 0.81747039
v -1.38136719 0.78625633 0.78599076
v -1.28315973 0.77279079 0.88665160
v -1.31349095 0.68174870 0.83502332
v -1.25993288 0.71419421 0.88495762
v -0.48868564 -0.38198408 -0.01572160
v -1.09480784 -0.26572472 -0.11355334
v -1.15523654 -0.34017528 -0.10940751
v -1.11517683 -0.40299766 -0.14229104
v -1.03965302 -0.34341631 -0.13218207
v -1.05785265 -0.17222153 -0.36144267
v -1.04129731 -0.16423483 -0.25289422
v -0.96306696 -0.22207345 -0.28613154
v -0.98059729 -0.22604070 -0.39277736
v -1.13329358 -0.22774234 -0.43916939
v -1.06564194 -0.28706936 -0.46683981
v -0.93452058 -0.27325438 -0.41840982
v -0.90346983 -0.28757842 -0.30609448
v -0.64707576 -0.53612298 -0.39518557
v -0.67489400 -0.54224219 -0.52271232
v -0.81991062 -0.95299658 -0.46524440
v -0.74245129 -0.95798291 -0.33941814
v -0.86152886 -0.81111493 -0.31746635
v -0.90514605 -0.82708446 -0.41526310
v -1.05657567 -0.20330367 -0.16867273
v -0.98210775 -0.27066134 -0.18081266
v -1.16916848 -0.56439518 -0.32764116
v -1.12740673 -0.54545636 -0.22533859
v -1.17644399 -0.46739795 -0.17893945
v -1.23274260 -0.49415806 -0.26588348
v -0.68374357 -0.86687971 -0.26181855
v -0.62412580 -0.78778549 -0.21712083
v -0.69807268 -0.70540636 -0.21786322
v -0.80152765 -0.75229334 -0.24870099
v -0.65976911 -0.58834410 -0.23166217
v -1.17199979 -0.53052270 -0.42082378
v -1.12206809 -0.44468219 -0.51160338
v -0.87429173 -0.75719272 -0.62084708
v -0.89028710 -0.82185244 -0.53132805
v -0.93209191 -0.32625643 -0.20057157
v -1.06370686 -0.48563597 -0.16977104
v -0.99848666 -0.41930935 -0.15051557
v -1.03063223 -0.32591388 -0.51104274
v -1.17340639 -0.38661072 -0.46567144
v -1.43634495 -0.27818508 -0.26830071
v -1.28451861 -0.42362335 -0.34070441
v -1.27946394 -0.43879000 -0.22248730
v -1.43420519 -0.28823652 -0.19792382
v -1.23551650 -0.46750178 -0.37434779
v -1.23639910 -0.33200371 -0.43406377
v -1.25485561 -0.12307519 -0.05874025
v -1.32596679 -0.22191195 -0.06831251
v -1.21986546 -0.07385943 -0.10288956
v -0.77476369 -0.60294716 -0.63282587
v -1.23501062 -0.04418792 -0.27170465
v -1.21540673 -0.03183092 -0.17227241
v -1.22236418 -0.39941637 -0.14325248
v -1.39130072 -0.27349431 -0.12344281
v -1.39837513 -0.21856570 -0.34103225
v -1.30387727 -0.11443031 -0.36100640
v -1.47399491 -0.14970497 -0.30942234
v -1.36419098 -0.05287334 -0.32358834
v -1.29846239 0.02262346 -0.22479609
v -1.26787931 0.01212575 -0.14438223
v -1.27220906 -0.02328022 -0.07790273
v -1.51087655 -0.21317522 -0.23677283
v -1.49716758 -0.23123264 -0.16473885
v -1.44239343 -0.22910763 -0.09335491
v -1.57996815 -0.14334076 -0.20192856
v -1.56116506 -0.04550276 -0.26442414
v -1.54063749 0.20639060 -0.06019795
v -1.47054865 0.15733459 -0.09505586
v -1.48433601 0.15292949 -0.12149829
v -1.54677047 0.21631229 -0.08481626
v -1.40042986 0.09391699 -0.17452983
v -1.43619605 0.09768453 -0.18650878
v -1.47058041 0.04218466 -0.24234046
v -1.55024632 0.11883584 -0.19527307
v -1.64544972 0.03508370 -0.19569158
v -1.69764209 0.10400058 -0.15352459
v -1.61090768 0.17410852 -0.16473149
v -1.56089615 0.00409618 -0.25498385
v -1.60080212 0.24624221 -0.08358011
v -1.60916455 0.26055366 -0.05548425
v -1.44527102 0.02594666 -0.26447545
v -1.33870938 0.07116068 -0.09905587
v -1.45958005 0.15856206 -0.03608304
v -1.55285824 0.22013437 -0.00769988
v -1.63447824 0.24124486 -0.01190625
v -1.44908090 0.11092870 0.00417827
v -1.55926173 0.18945701 0.03878975
v -1.64056171 0.20779477 0.03303926
v -1.46667473 0.04180714 0.04379114
v -1.57177991 0.12833265 0.05800075
v -1.35018907 -0.06359574 -0.00730782
v -1.33229351 0.01471569 -0.04372756
v -1.63238046 0.16566051 0.04104547
v -1.68284226 0.22997336 -0.09630663
v -1.70162652 0.20881999 -0.03226881
v -1.67079157 0.22035771 -0.12730754
v -1.65940014 0.00409376 -0.18497497
v -1.72370653 0.08588786 -0.13209309
v -1.67112057 -0.04231177 -0.14297707
v -1.73271925 0.06328045 -0.08565853
v -1.73360328 0.16161554 -0.10460793
v -1.70391123 0.16503821 -0.13479787
v -1.31205565 -0.09068628 -0.02845714
v -1.36809863 -0.17756218 -0.04429725
v -1.41260128 -0.14500891 -0.01984924
v -1.52178309 -0.03484629 0.04183878
v -1.48978821 -0.19380624 -0.06878082
v -1.55065964 -0.18442025 -0.13986991
v -1.65096936 -0.06735530 -0.08300410
v -1.60514587 -0.07114347 -0.01348715
v -1.71958989 0.05331104 -0.03573212
v -1.67316490 0.04284517 0.01918805
v -1.61477192 0.06764581 0.05841025
v -1.72083934 0.13871474 -0.01365436
v -1.73954449 0.15383227 -0.05113001
v -1.69340186 0.17917897 0.00564391
v -1.69461346 0.11912161 0.01932942
v -1.66718763 0.13870559 0.03456133
v -0.85486965 -0.89108841 -0.53163054
v 1.66277006 -0.19963771 -0.38774807
v 1.55781880 -0.21480148 -0.29388469
v 1.70880748 -0.45705071 -0.06397574
v 1.58453487 -0.36499246 -0.08563895
v 1.85117604 -0.48474387 -0.10507262
v 1.94638679 -0.42289867 -0.32532645
v 1.91999075 -0.48650799 -0.21949571
v 1.52336789 -0.27498015 -0.16723106
v 1.78176781 -0.22925056 -0.45956322
v 1.90520500 -0.32559493 -0.44032053
v 1.82392368 -0.10526959 -0.36776397
v 1.95373289 -0.20927201 -0.34528163
v 2.01024407 -0.30143817 -0.23055282
v 1.98104767 -0.37194919 -0.11475046
v 1.91592506 -0.39456787 -0.02492648
v 1.68959753 -0.08559475 -0.29598950
v 1.58828519 -0.10828612 -0.19838851
v 1.56472369 -0.20660570 -0.07760842
v 1.71335860 0.04285944 -0.17541157
v 1.91194566 0.16173771 -0.10889206
v 2.23392426 0.13434265 0.17757179
v 2.18360902 0.00485168 0.10924468
v 2.18233374 0.06175734 0.06299840
v 2.24049531 0.17125398 0.12174230
v 2.14248374 -0.04719010 0.00576431
v 2.14012441 0.01533782 -0.00133971
v 2.05596335 0.08077122 -0.07587532
v 2.11344951 0.17298607 -0.02624889
v 1.96941783 0.17079268 -0.08331590
v 1.97576841 0.24160696 -0.03757889
v 2.16240677 0.26825666 0.02958280
v 2.25743365 0.25911666 0.12185819
v 2.19958745 0.34481572 0.08861129
v 2.24661914 0.25683608 0.19874770
v 2.06232486 0.07250610 -0.10643601
v 2.07933012 -0.21308719 0.02107187
v 2.13364072 -0.06821359 0.15462656
v 2.17616202 0.09518590 0.23932114
v 2.19523509 0.24476332 0.25622237
v 2.04214800 -0.10310714 0.21253269
v 2.07458508 0.06529051 0.27439324
v 2.07752779 0.20725822 0.28090764
v 1.92556798 -0.08869604 0.23983624
v 1.97897626 0.07476121 0.27606280
v 1.80753033 -0.32501159 0.07318768
v 1.96474455 -0.31252279 0.05776834
v 2.01236571 0.17840364 0.27308888
v 2.19534111 0.38344040 0.14396270
v 2.13266466 0.37124889 0.20983107
v 1.89195267 0.25386960 -0.03613278
v 2.03026164 0.34203123 0.00076701
v 1.95836725 0.35308038 0.03473521
v 1.79614231 0.22238490 -0.01484219
v 1.89563052 0.34175694 0.07647429
v 2.06196698 0.41241041 0.08840148
v 2.10499864 0.37688863 0.04437197
v 1.77443005 -0.39338788 0.00633514
v 1.63758078 -0.32666866 -0.02508635
v 1.66663923 -0.24647409 0.03827941
v 1.78275364 -0.02822941 0.20417427
v 1.59288878 -0.11704438 -0.01285088
v 1.62438711 -0.00220184 -0.10637253
v 1.73259725 0.17681533 0.04570305
v 1.71477928 0.08314114 0.12473065
v 1.85484626 0.28690359 0.13932059
v 1.84992820 0.22490667 0.18358490
v 1.89785262 0.13946791 0.25278493
v 1.95645567 0.33435783 0.19181848
v 2.00018300 0.39715501 0.14126997
v 2.04005040 0.30795507 0.24599926
v 1.92579814 0.27010491 0.20952690
v 1.97584824 0.23732977 0.24890956
v -0.65196037 -1.09154128 -0.37839348
v -0.54802741 -1.02265726 -0.28236922
v -0.47777982 -1.16907101 -0.37623094
v -0.36316905 -1.33504844 -0.53745362
v -0.38677423 -1.48711032 -0.75913559
v -0.22109380 -1.25952789 -0.49411346
v -0.34677704 -1.09813794 -0.33323884
v -0.44746206 -0.88864010 -0.20631718
v 0.00675797 -1.28656742 -0.60960441
f 2 3 1
f 1 3 4
f 5 6 8
f 8 6 7
f 9 4 10
f 10 4 3
f 12 13 11
f 11 13 9
f 14 12 16
f 16 12 15
f 18 19 17
f 17 19 20
f 22 23 21
f 21 23 24
f 26 27 25
f 25 27 28
f 30 31 29
f 29 31 32
f 33 34 36
f 36 34 35
f 37 38 40
f 40 38 39
f 41 42 6
f 6 42 43
f 6 43 7
f 7 43 44
f 45 34 46
f 46 34 33
f 48 49 47
f 47 49 50
f 52 53 51
f 51 53 54
f 56 52 55
f 55 52 51
f 58 59 57
f 57 59 60
f 61 62 4
f 4 62 1
f 64 65 63
f 63 65 66
f 68 69 67
f 67 69 70
f 72 73 71
f 71 73 74
f 76 77 75
f 75 77 78
f 53 79 54
f 54 79 80
f 82 83 81
f 81 83 84
f 85 86 52
f 52 86 53
f 57 60 87
f 87 60 88
f 89 90 43
f 43 90 44
f 43 42 89
f 89 42 91
f 40 39 92
f 92 39 93
f 94 70 64
f 64 70 69
f 13 61 9
f 9 61 4
f 25 28 69
f 69 28 95
f 96 25 68
f 68 25 69
f 98 99 97
f 97 99 100
f 101 102 104
f 104 102 103
f 106 30 105
f 105 30 29
f 51 54 107
f 107 54 108
f 54 80 108
f 108 80 109
f 111 112 110
f 110 112 113
f 115 5 114
f 114 5 116
f 115 41 5
f 5 41 6
f 36 35 111
f 111 35 117
f 35 118 117
f 117 118 119
f 34 120 35
f 35 120 118
f 34 45 120
f 120 45 121
f 125 126 124
f 124 126 127
f 128 129 14
f 14 129 130
f 33 131 46
f 46 131 132
f 133 94 63
f 63 94 64
f 134 135 137
f 137 135 136
f 139 140 138
f 138 140 141
f 77 142 78
f 78 142 143
f 144 145 20
f 20 145 146
f 148 149 147
f 147 149 72
f 151 152 150
f 150 152 153
f 82 101 83
f 83 101 104
f 101 82 155
f 155 82 154
f 156 157 58
f 58 157 59
f 158 68 147
f 147 68 67
f 159 146 15
f 15 146 16
f 68 158 96
f 96 158 160
f 129 66 130
f 130 66 65
f 162 163 161
f 161 163 164
f 166 167 165
f 165 167 168
f 170 171 169
f 169 171 172
f 174 171 173
f 173 171 170
f 176 177 175
f 175 177 178
f 180 181 179
f 179 181 24
f 182 183 21
f 21 183 184
f 81 185 82
f 82 185 154
f 186 187 188
f 188 187 144
f 158 71 160
f 160 71 189
f 190 135 157
f 157 135 59
f 169 172 139
f 139 172 140
f 147 72 158
f 158 72 71
f 192 193 191
f 191 193 194
f 167 166 49
f 49 166 195
f 196 190 50
f 50 190 157
f 197 198 200
f 200 198 199
f 21 24 182
f 182 24 181
f 146 159 20
f 20 159 17
f 182 181 81
f 81 181 185
f 201 185 180
f 180 185 181
f 202 203 83
f 83 203 84
f 205 206 204
f 204 206 85
f 207 22 184
f 184 22 21
f 179 24 208
f 208 24 23
f 208 209 179
f 179 209 205
f 209 210 205
f 205 210 206
f 212 206 211
f 211 206 210
f 179 205 180
f 180 205 204
f 213 176 88
f 88 176 214
f 86 85 212
f 212 85 206
f 193 217 218
f 217 219 218
f 218 219 220
f 219 18 220
f 220 18 17
f 19 221 20
f 20 221 144
f 222 223 225
f 225 223 224
f 175 226 176
f 176 226 214
f 227 87 214
f 214 87 88
f 220 17 228
f 228 17 159
f 134 213 60
f 60 213 88
f 138 229 151
f 151 229 152
f 193 192 210
f 210 192 211
f 230 194 218
f 218 194 193
f 231 232 228
f 228 232 230
f 233 234 91
f 91 234 89
f 235 236 93
f 93 236 92
f 230 232 234
f 234 232 237
f 47 238 48
f 48 238 239
f 240 191 235
f 235 191 236
f 5 8 116
f 116 8 241
f 242 243 189
f 189 243 160
f 244 245 98
f 98 245 99
f 156 246 47
f 47 246 238
f 76 247 77
f 77 247 248
f 250 125 249
f 249 125 124
f 252 253 251
f 251 253 254
f 111 110 36
f 36 110 255
f 256 33 255
f 255 33 36
f 257 258 154
f 154 258 155
f 63 169 133
f 133 169 139
f 66 170 63
f 63 170 169
f 173 170 129
f 129 170 66
f 129 128 173
f 173 128 259
f 128 260 259
f 259 260 261
f 213 134 262
f 262 134 137
f 263 264 186
f 186 264 187
f 112 265 113
f 113 265 266
f 11 267 268
f 234 233 230
f 230 233 194
f 153 269 70
f 70 269 67
f 175 178 165
f 165 178 141
f 150 153 94
f 94 153 70
f 271 221 270
f 270 221 207
f 269 153 272
f 272 153 152
f 121 45 109
f 109 45 108
f 47 50 156
f 156 50 157
f 57 273 58
f 58 273 274
f 145 275 260
f 260 275 261
f 276 149 143
f 143 149 78
f 148 269 75
f 75 269 272
f 207 277 270
f 270 277 278
f 195 196 49
f 49 196 50
f 59 135 60
f 60 135 134
f 83 104 202
f 202 104 279
f 149 148 78
f 78 148 75
f 247 278 248
f 248 278 277
f 183 182 84
f 84 182 81
f 48 239 281
f 281 239 282
f 227 223 283
f 283 223 222
f 223 226 224
f 224 226 168
f 281 282 224
f 224 282 225
f 165 168 175
f 175 168 226
f 264 263 138
f 138 263 229
f 14 16 128
f 128 16 260
f 220 228 218
f 218 228 230
f 87 227 284
f 284 227 283
f 260 16 145
f 145 16 146
f 244 98 258
f 258 98 155
f 58 274 156
f 156 274 246
f 107 285 51
f 51 285 55
f 243 286 160
f 160 286 96
f 234 237 89
f 89 237 90
f 46 132 107
f 107 132 285
f 253 252 249
f 249 252 250
f 286 26 96
f 96 26 25
f 106 105 287
f 287 105 288
f 272 152 289
f 289 152 229
f 138 151 139
f 139 151 133
f 183 290 161
f 161 290 162
f 291 292 277
f 277 292 293
f 151 150 133
f 133 150 94
f 262 275 177
f 177 275 187
f 144 187 145
f 145 187 275
f 273 57 284
f 284 57 87
f 174 136 190
f 190 136 135
f 111 117 112
f 112 117 38
f 117 119 38
f 38 119 123
f 112 38 265
f 265 38 37
f 287 288 254
f 254 288 251
f 228 159 231
f 231 159 15
f 223 227 226
f 226 227 214
f 147 67 148
f 148 67 269
f 224 168 281
f 281 168 167
f 199 163 200
f 200 163 162
f 45 46 108
f 108 46 107
f 281 167 48
f 48 167 49
f 161 164 291
f 291 164 292
f 38 123 39
f 293 294 277
f 277 294 248
f 284 283 296
f 296 283 295
f 284 296 273
f 273 296 297
f 274 273 298
f 298 273 297
f 246 274 299
f 299 274 298
f 283 222 295
f 295 222 300
f 222 225 300
f 300 225 301
f 301 225 302
f 302 225 282
f 303 304 300
f 300 304 295
f 306 307 305
f 305 307 308
f 309 310 308
f 308 310 305
f 308 307 312
f 312 307 311
f 313 314 312
f 312 314 315
f 311 316 312
f 312 316 313
f 317 304 311
f 311 304 316
f 315 309 312
f 312 309 308
f 318 319 321
f 321 319 320
f 319 318 309
f 309 318 310
f 311 307 317
f 317 307 306
f 306 297 317
f 317 297 296
f 306 322 297
f 297 322 298
f 305 323 306
f 306 323 322
f 323 305 324
f 324 305 310
f 304 317 295
f 295 317 296
f 318 325 310
f 310 325 324
f 323 324 326
f 326 324 327
f 324 325 327
f 327 325 328
f 326 327 329
f 329 327 330
f 329 331 326
f 326 331 332
f 333 330 328
f 328 330 327
f 323 326 322
f 322 326 332
f 322 332 298
f 298 332 299
f 325 318 334
f 334 318 321
f 313 316 335
f 335 316 304
f 335 336 313
f 313 336 314
f 304 303 335
f 335 303 337
f 336 335 338
f 338 335 337
f 336 339 314
f 314 339 340
f 246 299 238
f 238 299 341
f 239 342 282
f 282 342 302
f 342 239 341
f 341 239 238
f 341 331 342
f 342 331 343
f 331 329 343
f 343 329 344
f 342 343 302
f 302 343 345
f 341 299 331
f 331 299 332
f 346 301 345
f 345 301 302
f 346 303 301
f 301 303 300
f 347 337 346
f 346 337 303
f 347 346 348
f 348 346 345
f 349 347 350
f 350 347 348
f 343 344 345
f 345 344 348
f 344 351 348
f 348 351 350
f 337 347 338
f 338 347 349
f 353 338 352
f 352 338 349
f 352 355 354
f 354 355 356
f 352 349 355
f 355 349 350
f 352 354 353
f 353 354 334
f 353 334 339
f 339 334 321
f 339 336 353
f 353 336 338
f 329 330 344
f 344 330 351
f 356 351 333
f 333 351 330
f 356 355 351
f 351 355 350
f 354 356 328
f 328 356 333
f 328 325 354
f 354 325 334
f 309 315 319
f 319 315 320
f 320 340 321
f 321 340 339
f 320 315 340
f 340 315 314
f 137 136 261
f 261 136 259
f 140 166 141
f 141 166 165
f 172 171 195
f 195 171 196
f 171 174 196
f 196 174 190
f 178 177 264
f 264 177 187
f 172 195 140
f 140 195 166
f 137 261 262
f 262 261 275
f 178 264 141
f 141 264 138
f 262 177 213
f 213 177 176
f 136 174 259
f 259 174 173
f 358 359 357
f 357 359 360
f 362 363 361
f 361 363 364
f 361 364 365
f 365 364 366
f 367 368 370
f 370 368 369
f 76 371 247
f 247 371 372
f 373 374 362
f 362 374 363
f 376 377 375
f 375 377 378
f 289 229 380
f 380 229 379
f 381 379 263
f 263 379 229
f 383 384 382
f 382 384 385
f 386 368 374
f 374 368 363
f 76 289 371
f 371 289 380
f 377 376 359
f 359 376 387
f 388 386 360
f 360 386 374
f 389 383 366
f 366 383 390
f 392 393 391
f 391 393 394
f 383 382 390
f 390 382 395
f 396 365 390
f 390 365 366
f 389 366 367
f 367 366 364
f 357 397 358
f 358 397 398
f 373 399 357
f 357 399 397
f 389 367 400
f 400 367 370
f 382 385 375
f 375 385 372
f 357 360 373
f 373 360 374
f 361 401 362
f 362 401 402
f 387 388 359
f 359 388 360
f 363 368 364
f 364 368 367
f 358 398 403
f 403 398 404
f 396 392 405
f 405 392 391
f 392 395 393
f 393 395 378
f 393 403 394
f 394 403 404
f 375 378 382
f 382 378 395
f 365 396 406
f 406 396 405
f 362 402 373
f 373 402 399
f 271 270 400
f 400 270 384
f 401 361 406
f 406 361 365
f 381 369 386
f 386 369 368
f 392 396 395
f 395 396 390
f 393 378 403
f 403 378 377
f 403 377 358
f 358 377 359
f 406 405 408
f 408 405 407
f 406 408 401
f 401 408 409
f 401 409 402
f 402 409 410
f 402 410 399
f 399 410 411
f 405 391 407
f 407 391 412
f 391 394 412
f 412 394 413
f 394 404 413
f 413 404 414
f 415 416 412
f 412 416 407
f 418 419 417
f 417 419 420
f 421 422 418
f 418 422 419
f 419 422 424
f 424 422 423
f 425 426 424
f 424 426 427
f 423 428 424
f 424 428 425
f 427 420 424
f 424 420 419
f 420 429 417
f 417 429 430
f 423 422 431
f 431 422 421
f 421 409 431
f 431 409 408
f 421 432 409
f 409 432 410
f 418 433 421
f 421 433 432
f 434 433 417
f 417 433 418
f 431 416 423
f 423 416 428
f 416 431 407
f 407 431 408
f 435 434 430
f 430 434 417
f 433 434 436
f 436 434 437
f 434 435 437
f 437 435 438
f 436 437 439
f 439 437 440
f 439 441 436
f 436 441 442
f 438 443 437
f 437 443 440
f 436 442 433
f 433 442 432
f 432 442 410
f 410 442 411
f 435 430 445
f 445 430 444
f 430 429 444
f 444 429 446
f 425 428 447
f 447 428 416
f 426 425 448
f 448 425 447
f 416 415 447
f 447 415 449
f 447 449 448
f 448 449 450
f 451 452 448
f 448 452 426
f 446 452 444
f 444 452 451
f 399 411 397
f 397 411 453
f 398 454 404
f 404 454 414
f 454 398 453
f 453 398 397
f 453 441 454
f 454 441 455
f 441 439 455
f 455 439 456
f 454 455 414
f 414 455 457
f 441 453 442
f 442 453 411
f 458 413 457
f 457 413 414
f 458 415 413
f 413 415 412
f 458 459 415
f 415 459 449
f 459 458 460
f 460 458 457
f 461 459 462
f 462 459 460
f 455 456 457
f 457 456 460
f 456 463 460
f 460 463 462
f 459 461 449
f 449 461 450
f 465 450 464
f 464 450 461
f 464 467 466
f 466 467 468
f 464 461 467
f 467 461 462
f 464 466 465
f 465 466 445
f 465 445 451
f 451 445 444
f 451 448 465
f 465 448 450
f 439 440 456
f 456 440 463
f 468 463 443
f 443 463 440
f 468 467 463
f 463 467 462
f 466 468 438
f 438 468 443
f 438 435 466
f 466 435 445
f 420 427 429
f 429 427 446
f 446 427 452
f 452 427 426
f 370 369 188
f 188 369 186
f 371 376 372
f 372 376 375
f 380 379 387
f 387 379 388
f 379 381 388
f 388 381 386
f 385 384 278
f 278 384 270
f 380 387 371
f 371 387 376
f 400 370 271
f 271 370 188
f 385 278 372
f 372 278 247
f 400 384 389
f 389 384 383
f 369 381 186
f 186 381 263
f 221 271 144
f 144 271 188
f 221 19 207
f 207 19 22
f 19 18 22
f 22 18 23
f 18 219 23
f 23 219 208
f 469 470 472
f 472 470 471
f 474 475 473
f 473 475 476
f 473 476 477
f 477 476 478
f 480 481 479
f 479 481 482
f 483 484 474
f 474 484 475
f 486 487 485
f 485 487 488
f 489 490 77
f 77 490 142
f 491 489 248
f 248 489 77
f 493 494 492
f 492 494 495
f 496 480 484
f 484 480 475
f 486 497 487
f 487 497 471
f 498 496 472
f 472 496 484
f 499 493 478
f 478 493 500
f 501 502 504
f 504 502 503
f 493 492 500
f 500 492 505
f 506 477 500
f 500 477 478
f 499 478 479
f 479 478 476
f 469 507 470
f 470 507 508
f 483 509 469
f 469 509 507
f 479 482 499
f 499 482 510
f 492 495 485
f 485 495 511
f 483 469 484
f 484 469 472
f 473 512 474
f 474 512 513
f 497 498 471
f 471 498 472
f 475 480 476
f 476 480 479
f 470 508 514
f 514 508 515
f 506 502 516
f 516 502 501
f 503 502 488
f 488 502 505
f 514 515 503
f 503 515 504
f 485 488 492
f 492 488 505
f 477 506 517
f 517 506 516
f 474 513 483
f 483 513 509
f 510 292 494
f 494 292 164
f 512 473 517
f 517 473 477
f 491 481 496
f 496 481 480
f 502 506 505
f 505 506 500
f 503 488 514
f 514 488 487
f 514 487 470
f 470 487 471
f 517 516 519
f 519 516 518
f 517 519 512
f 512 519 520
f 512 520 513
f 513 520 521
f 513 521 509
f 509 521 522
f 516 501 518
f 518 501 523
f 501 504 523
f 523 504 524
f 524 504 525
f 525 504 515
f 526 527 523
f 523 527 518
f 529 530 528
f 528 530 531
f 532 533 529
f 529 533 530
f 530 533 535
f 535 533 534
f 536 537 535
f 535 537 538
f 534 539 535
f 535 539 536
f 538 531 535
f 535 531 530
f 540 541 531
f 531 541 528
f 533 532 534
f 534 532 542
f 532 520 542
f 542 520 519
f 532 543 520
f 520 543 521
f 529 544 532
f 532 544 543
f 544 529 545
f 545 529 528
f 534 542 539
f 539 542 527
f 527 542 518
f 518 542 519
f 541 546 528
f 528 546 545
f 547 544 548
f 548 544 545
f 546 549 545
f 545 549 548
f 550 547 551
f 551 547 548
f 547 550 553
f 553 550 552
f 549 554 548
f 548 554 551
f 544 547 543
f 543 547 553
f 543 553 521
f 521 553 522
f 546 541 556
f 556 541 555
f 541 540 555
f 555 540 557
f 536 539 558
f 558 539 527
f 537 536 559
f 559 536 558
f 527 526 558
f 558 526 560
f 559 558 561
f 561 558 560
f 559 562 537
f 537 562 563
f 557 563 555
f 555 563 562
f 509 522 507
f 507 522 564
f 508 565 515
f 515 565 525
f 565 508 564
f 564 508 507
f 564 552 565
f 565 552 566
f 552 550 566
f 566 550 567
f 565 566 525
f 525 566 568
f 564 522 552
f 552 522 553
f 569 524 568
f 568 524 525
f 569 526 524
f 524 526 523
f 570 560 569
f 569 560 526
f 570 569 571
f 571 569 568
f 572 570 573
f 573 570 571
f 566 567 568
f 568 567 571
f 567 574 571
f 571 574 573
f 570 572 560
f 560 572 561
f 576 561 575
f 575 561 572
f 575 578 577
f 577 578 579
f 575 572 578
f 578 572 573
f 575 577 576
f 576 577 556
f 576 556 562
f 562 556 555
f 562 559 576
f 576 559 561
f 550 551 567
f 567 551 574
f 579 574 554
f 554 574 551
f 579 578 574
f 574 578 573
f 579 554 577
f 577 554 549
f 549 546 577
f 577 546 556
f 531 538 540
f 540 538 557
f 557 538 563
f 563 538 537
f 481 294 482
f 482 294 293
f 580 486 511
f 511 486 485
f 490 489 497
f 497 489 498
f 489 491 498
f 498 491 496
f 163 495 164
f 164 495 494
f 580 490 486
f 486 490 497
f 482 293 510
f 510 293 292
f 495 163 511
f 511 163 199
f 494 493 510
f 510 493 499
f 481 491 294
f 294 491 248
f 582 583 581
f 581 583 584
f 586 587 585
f 585 587 588
f 585 588 589
f 589 588 590
f 592 593 591
f 591 593 594
f 595 596 598
f 598 596 597
f 599 600 586
f 586 600 587
f 601 602 604
f 604 602 603
f 605 606 608
f 608 606 607
f 609 607 200
f 200 607 606
f 610 611 613
f 613 611 612
f 600 614 587
f 587 614 592
f 596 605 597
f 597 605 608
f 602 615 603
f 603 615 583
f 616 614 584
f 584 614 600
f 611 618 617
f 617 618 590
f 620 621 619
f 619 621 622
f 610 623 611
f 611 623 618
f 624 589 618
f 618 589 590
f 617 590 591
f 591 590 588
f 581 625 582
f 582 625 626
f 599 627 581
f 581 627 625
f 591 594 617
f 617 594 628
f 601 610 598
f 598 610 613
f 581 584 599
f 599 584 600
f 585 629 586
f 586 629 630
f 615 616 583
f 583 616 584
f 587 592 588
f 588 592 591
f 582 626 631
f 631 626 632
f 624 620 633
f 633 620 619
f 621 620 604
f 604 620 623
f 631 632 621
f 621 632 622
f 610 601 623
f 623 601 604
f 589 624 634
f 634 624 633
f 586 630 599
f 599 630 627
f 203 202 628
f 628 202 612
f 629 585 634
f 634 585 589
f 609 593 614
f 614 593 592
f 620 624 623
f 623 624 618
f 631 621 603
f 603 621 604
f 582 631 583
f 583 631 603
f 634 633 636
f 636 633 635
f 634 636 629
f 629 636 637
f 629 637 630
f 630 637 638
f 630 638 627
f 627 638 639
f 633 619 635
f 635 619 640
f 619 622 640
f 640 622 641
f 641 622 642
f 642 622 632
f 644 635 643
f 643 635 640
f 645 646 648
f 648 646 647
f 649 650 646
f 646 650 647
f 647 650 652
f 652 650 651
f 652 653 655
f 655 653 654
f 651 656 652
f 652 656 653
f 655 648 652
f 652 648 647
f 648 657 645
f 645 657 658
f 650 649 651
f 651 649 659
f 649 637 659
f 659 637 636
f 649 660 637
f 637 660 638
f 661 660 646
f 646 660 649
f 662 661 645
f 645 661 646
f 651 659 656
f 656 659 644
f 644 659 635
f 635 659 636
f 663 662 658
f 658 662 645
f 664 661 665
f 665 661 662
f 663 666 662
f 662 666 665
f 667 664 668
f 668 664 665
f 664 667 670
f 670 667 669
f 666 671 665
f 665 671 668
f 661 664 660
f 660 664 670
f 660 670 638
f 638 670 639
f 658 672 663
f 663 672 673
f 658 657 672
f 672 657 674
f 653 656 675
f 675 656 644
f 653 675 654
f 654 675 676
f 675 644 677
f 677 644 643
f 676 675 678
f 678 675 677
f 679 680 676
f 676 680 654
f 674 680 672
f 672 680 679
f 627 639 625
f 625 639 681
f 626 682 632
f 632 682 642
f 681 682 625
f 625 682 626
f 669 683 681
f 681 683 682
f 667 684 669
f 669 684 683
f 682 683 642
f 642 683 685
f 681 639 669
f 669 639 670
f 686 641 685
f 685 641 642
f 641 686 640
f 640 686 643
f 686 687 643
f 643 687 677
f 687 686 688
f 688 686 685
f 689 687 690
f 690 687 688
f 683 684 685
f 685 684 688
f 684 691 688
f 688 691 690
f 687 689 677
f 677 689 678
f 693 678 692
f 692 678 689
f 692 695 694
f 694 695 696
f 692 689 695
f 695 689 690
f 692 694 693
f 693 694 673
f 693 673 679
f 679 673 672
f 679 676 693
f 693 676 678
f 684 667 691
f 691 667 668
f 696 691 671
f 671 691 668
f 696 695 691
f 691 695 690
f 694 696 666
f 666 696 671
f 666 663 694
f 694 663 673
f 648 655 657
f 657 655 674
f 674 655 680
f 680 655 654
f 593 162 594
f 594 162 290
f 598 597 601
f 601 597 602
f 615 608 616
f 616 608 607
f 607 609 616
f 616 609 614
f 697 595 613
f 613 595 598
f 597 608 602
f 602 608 615
f 594 290 628
f 628 290 203
f 628 612 617
f 617 612 611
f 593 609 162
f 162 609 200
f 105 29 698
f 698 29 699
f 268 126 701
f 701 126 700
f 126 125 700
f 700 125 702
f 252 703 250
f 250 703 704
f 32 268 705
f 705 268 701
f 288 105 706
f 706 105 698
f 29 32 699
f 699 32 705
f 707 251 706
f 706 251 288
f 250 704 125
f 125 704 702
f 703 252 707
f 707 252 251
f 706 708 707
f 707 708 709
f 707 709 703
f 703 709 710
f 703 710 704
f 704 710 711
f 704 711 702
f 702 711 712
f 706 698 708
f 708 698 713
f 698 699 713
f 713 699 714
f 699 705 714
f 714 705 715
f 717 708 716
f 716 708 713
f 719 720 718
f 718 720 721
f 722 723 719
f 719 723 720
f 724 725 723
f 723 725 720
f 724 726 725
f 725 726 727
f 728 721 725
f 725 721 720
f 721 728 729
f 729 728 730
f 729 731 721
f 721 731 718
f 724 723 732
f 732 723 722
f 722 710 732
f 732 710 709
f 722 733 710
f 710 733 711
f 719 734 722
f 722 734 733
f 734 719 735
f 735 719 718
f 724 732 726
f 726 732 717
f 717 732 708
f 708 732 709
f 731 736 718
f 718 736 735
f 737 734 738
f 738 734 735
f 736 739 735
f 735 739 738
f 740 737 741
f 741 737 738
f 737 740 743
f 743 740 742
f 739 744 738
f 738 744 741
f 734 737 733
f 733 737 743
f 733 743 711
f 711 743 712
f 736 731 746
f 746 731 745
f 731 729 745
f 745 729 730
f 727 726 747
f 747 726 717
f 748 727 749
f 749 727 747
f 747 717 750
f 750 717 716
f 749 747 751
f 751 747 750
f 749 752 748
f 748 752 753
f 730 753 745
f 745 753 752
f 728 725 748
f 748 725 727
f 730 728 753
f 753 728 748
f 700 702 754
f 754 702 712
f 705 701 715
f 715 701 755
f 754 755 700
f 700 755 701
f 742 756 754
f 754 756 755
f 740 757 742
f 742 757 756
f 755 756 715
f 715 756 758
f 754 712 742
f 742 712 743
f 759 714 758
f 758 714 715
f 714 759 713
f 713 759 716
f 759 760 716
f 716 760 750
f 760 759 761
f 761 759 758
f 762 760 763
f 763 760 761
f 756 757 758
f 758 757 761
f 757 764 761
f 761 764 763
f 760 762 750
f 750 762 751
f 766 751 765
f 765 751 762
f 767 765 769
f 769 765 768
f 765 762 768
f 768 762 763
f 765 767 766
f 766 767 746
f 766 746 752
f 752 746 745
f 752 749 766
f 766 749 751
f 757 740 764
f 764 740 741
f 769 764 744
f 744 764 741
f 769 768 764
f 764 768 763
f 767 769 739
f 739 769 744
f 739 736 767
f 767 736 746
f 219 217 208
f 208 217 209
f 209 217 210
f 210 217 193
f 198 580 199
f 199 580 511
f 76 75 289
f 289 75 272
f 277 207 291
f 291 207 184
f 290 183 203
f 203 183 84
f 490 580 142
f 142 580 198
f 142 198 143
f 143 198 197
f 149 276 72
f 72 276 73
f 104 103 279
f 279 103 770
f 770 596 279
f 279 596 595
f 605 596 771
f 771 596 770
f 771 770 772
f 772 770 103
f 772 103 773
f 773 103 102
f 155 774 101
f 101 774 102
f 773 102 97
f 97 102 774
f 775 773 100
f 100 773 97
f 773 775 772
f 772 775 776
f 772 776 771
f 771 776 777
f 200 606 197
f 197 606 777
f 189 71 778
f 778 71 74
f 97 774 98
f 98 774 155
f 183 161 184
f 184 161 291
f 777 276 197
f 197 276 143
f 777 606 771
f 771 606 605
f 613 612 697
f 697 612 202
f 595 697 279
f 279 697 202
f 73 276 776
f 776 276 777
f 776 775 73
f 73 775 74
f 100 778 775
f 775 778 74
f 778 100 189
f 189 100 99
f 245 242 99
f 99 242 189
f 131 33 256
f 28 1 95
f 95 1 62
f 27 2 28
f 28 2 1
f 265 115 266
f 266 115 114
f 95 62 69
f 69 62 64
f 62 61 64
f 64 61 65
f 61 13 65
f 65 13 130
f 13 12 130
f 130 12 14
f 31 11 32
f 32 11 268
f 15 12 31
f 31 12 11
f 31 30 15
f 15 30 231
f 30 106 231
f 231 106 232
f 287 237 106
f 106 237 232
f 254 90 287
f 287 90 237
f 253 44 254
f 254 44 90
f 253 249 44
f 44 249 7
f 267 127 268
f 268 127 126
f 10 3 241
f 241 3 116
f 3 2 116
f 116 2 114
f 2 27 114
f 114 27 266
f 27 26 266
f 266 26 113
f 26 286 113
f 113 286 110
f 286 243 110
f 110 243 255
f 243 242 255
f 255 242 256
f 242 245 256
f 256 245 131
f 245 244 131
f 131 244 132
f 265 37 115
f 115 37 41
f 41 37 42
f 42 37 40
f 92 91 40
f 40 91 42
f 236 233 92
f 92 233 91
f 191 194 236
f 236 194 233
f 258 285 244
f 244 285 132
f 257 55 258
f 258 55 285
f 257 154 201
f 201 154 185
f 56 201 204
f 204 201 180
f 55 257 56
f 56 257 201
f 204 85 56
f 56 85 52
f 86 122 53
f 53 122 79
f 212 215 86
f 86 215 122
f 211 216 212
f 212 216 215
f 192 280 211
f 211 280 216
f 191 240 192
f 192 240 280
f 249 124 7
f 7 124 8
f 124 127 8
f 8 127 241
f 127 267 241
f 241 267 10
f 10 267 9
f 9 267 11

