# https://github.com/mikedh/trimesh

o 01_02r.off
v 0.59388830 -0.69088432 -0.27151424
v 0.66204622 -0.92205304 -0.33400191
v 0.88134232 -0.80148415 -0.19112788
v 0.78078876 -0.60182674 -0.12648449
v 1.08162693 -1.28809039 -0.34919447
v 1.29334871 -1.38210689 -0.54030113
v 1.52256231 -1.07273267 -0.36524341
v 1.32743962 -1.05666888 -0.21127756
v 0.95582505 -0.49406651 -0.09509723
v 1.04734399 -0.70531821 -0.13359077
v 1.07610372 -0.41540984 -0.20789090
v 0.99256801 -0.17662574 -0.20696308
v 0.89573959 -0.27397594 -0.06336247
v 0.93249706 -0.00602813 -0.16126032
v 1.02335100 -0.18123169 -0.48356949
v 0.87148778 0.06115805 -0.36073781
v 0.56977590 -0.17293018 -0.88734046
v 0.29926193 -0.23398318 -1.01993814
v 0.19414643 0.05150511 -0.78852069
v 0.48613875 0.06648564 -0.64992998
v -0.18011984 -0.23669982 -0.94074317
v 0.01227031 -0.05158057 -0.84561926
v 0.12253731 -0.32864131 -1.10392868
v -0.05537455 -0.47801621 -1.17639270
v 0.31203484 -0.83761932 -0.51860503
v 0.32889244 -1.06373157 -0.61453215
v 0.43788588 -1.01096815 -0.51887632
v 0.41750668 -0.79666688 -0.44572661
v 1.32623875 -0.41438620 -0.37573458
v 1.26599968 -0.42955253 -0.54443608
v 1.16288357 -0.37438460 -0.38921355
v 1.26281936 -0.44631591 -0.26657688
v 0.22637388 -1.68139269 -0.90706284
v 0.35245729 -1.83166279 -1.16264489
v 0.48537259 -1.80181731 -1.12500166
v 0.33874176 -1.65934295 -0.90299950
v 1.00960360 -1.65895645 -0.83926996
v 0.91506144 -1.72752957 -1.05181278
v 1.17462731 -1.67889940 -1.25864390
v 1.23480967 -1.54709224 -1.10324395
v 1.13870308 -1.55120062 -0.67922489
v 1.33240045 -1.47582946 -0.90512375
v 1.43248488 -1.29581701 -0.76198127
v 1.63918503 -0.98588569 -0.55020799
v 0.07817819 -1.86546579 -1.28637833
v -0.06569028 -1.76978225 -1.11007408
v 0.70790241 0.89603736 0.34570111
v 0.57573027 0.85114197 0.36962166
v 0.58665736 0.82353873 0.34078208
v 0.70943176 0.86601470 0.31491805
v -0.20578399 -1.56946507 -1.54187282
v -0.15601025 -1.40611119 -1.71337846
v -0.12509317 -1.56167850 -1.78465024
v -0.12647913 -1.71395044 -1.61798915
v -0.30530100 -1.38210514 -1.43958858
v -0.18323805 -1.19551792 -1.59739974
v 0.70635050 1.17216427 0.19801315
v 0.77057861 1.08887644 0.26625374
v 0.78201527 1.05620224 0.16656853
v 0.71295349 1.13012612 0.07880722
v 0.73988384 -0.39551207 -0.04877231
v 0.55876068 -0.50928034 -0.15509923
v 0.59959264 0.03143302 0.16700201
v 0.55280302 -0.21840784 0.00750637
v 0.72671412 -0.19415226 0.04101720
v 0.75182091 0.01482633 0.12488792
v 0.11209763 -0.40852126 -0.28773957
v 0.18741103 -0.63078531 -0.43054820
v 0.30517635 -0.56322870 -0.36064297
v 0.25556246 -0.32666869 -0.17560244
v -0.10887215 -0.77450708 -0.51113493
v -0.15898151 -0.54098122 -0.36326032
v -0.32267943 -0.64676768 -0.42577468
v -0.26065976 -0.80690097 -0.50739685
v -0.18432378 -0.08686135 -0.10215226
v -0.22384392 0.12493164 -0.05373769
v -0.29102254 0.09910843 -0.07518647
v -0.25537561 -0.12488459 -0.14098794
v -0.08470239 -1.70352265 -1.87116759
v -0.03853608 -1.84881460 -1.68902580
v -0.57619663 -0.55328709 -1.04676269
v -0.69078533 -0.78875914 -1.00003755
v -0.83375163 -0.60983191 -0.84018308
v -0.67444246 -0.41567628 -0.92617081
v 0.00374751 -1.23316551 -1.78675941
v -0.01070207 -1.38464773 -1.89541909
v 0.56950099 1.20979676 0.14834979
v 0.57138933 1.17506172 0.03485837
v 1.39821194 -1.15158616 -0.95221131
v 1.60149839 -0.85575661 -0.69618220
v 1.28134592 -1.31731653 -1.13757689
v 1.21990609 -1.40615170 -1.31684127
v 1.24194355 -1.51563095 -1.47644426
v 0.39501649 -0.15601707 0.02350748
v 0.43151414 -0.61057623 -0.31442633
v 0.21479049 -0.88617520 -0.56213243
v -0.47560615 -1.13631928 -0.65922230
v -0.40105752 -1.34186842 -0.77762449
v -0.20881383 -1.21674741 -0.64597415
v -0.31604355 -1.05400942 -0.58743632
v -0.75038208 -0.93756256 -0.82570929
v -0.67370406 -0.95186014 -0.65407717
v -0.74805605 -0.78016872 -0.55282872
v -0.83804379 -0.75385252 -0.70005253
v 1.47329050 -0.40209734 -0.47348838
v 1.38511448 -0.52127295 -0.67138969
v -0.16810020 -1.71000684 -1.33992288
v -0.03561577 -1.81894707 -1.42237514
v 0.05306609 -1.94097591 -1.55334589
v 0.30487160 -1.38446822 -0.72001602
v 0.41950230 -1.64800374 -0.88905291
v 0.53432388 -1.62103768 -0.81712899
v 0.37132246 -1.34663687 -0.67935077
v 0.72194082 -1.20497824 -0.37188494
v 0.83120332 -1.47556459 -0.53626315
v 0.96168409 -1.03882233 -0.20562690
v 0.68142067 -1.79503553 -1.09605476
v 0.58044974 -1.96469749 -1.27832519
v 0.78577833 -1.92333818 -1.25491961
v 0.36232126 -1.99610333 -1.35848056
v 0.17153098 -1.99924683 -1.45179509
v 0.00290077 -1.51096830 -2.06089800
v 0.96748121 -1.83451268 -1.26077355
v 1.46752018 -0.88820041 -0.15956247
v 1.52794572 -0.74674350 -0.09365642
v 1.35921628 -0.68367467 -0.09315548
v 1.29482653 -0.79126121 -0.14712501
v 0.88729225 0.20539833 -0.12429412
v 0.85972829 0.11345585 0.04431442
v 0.89729109 -0.12555181 -0.03210352
v 0.02544841 -1.53488424 -0.79066249
v -0.21694317 -1.61608248 -0.96881020
v 0.46170180 0.11270320 0.15575508
v 0.73009522 1.01057273 -0.00250625
v 0.80684767 0.94683146 0.10061467
v 0.82978743 0.54613816 -0.04915188
v 0.75149830 0.61772693 -0.16980374
v 0.36290781 0.37934794 0.10084618
v 0.46874916 0.27930270 0.16871941
v 0.46326984 0.37801709 0.16952944
v 0.35971115 0.47800852 0.11945508
v -0.44550498 -0.05683044 -0.15621301
v -0.41826981 -0.24000725 -0.21912124
v 0.37236942 0.29035572 -0.37385042
v 0.67226972 0.23971873 -0.38447865
v 0.71343237 0.06785373 -0.54973995
v -0.03312069 -0.49642905 -0.34098411
v -0.12440297 -0.29949802 -0.20656267
v -0.21271729 -0.33479662 -0.23991662
v 0.30527048 -0.07906266 0.02989992
v 0.32348319 0.14043514 0.11301939
v 0.21691167 0.04096300 0.03043424
v 0.20964729 -0.14251841 -0.06003411
v -0.56421393 -0.98548979 -1.18718440
v -0.64189004 -1.17080216 -0.98460870
v 0.77240064 0.98602559 0.31330581
v 0.78447204 0.95331404 0.25482919
v 0.04435770 -0.71114760 -0.48453934
v 0.75653063 -0.17346662 -0.74604293
v 0.10292128 -0.94269634 -0.60442497
v -0.55316549 -0.07313474 -0.61909354
v -0.68644865 -0.13678620 -0.50313446
v -0.67502332 -0.00777916 -0.41538131
v -0.61287505 0.08197188 -0.51493432
v 0.34561687 0.81077544 0.20300443
v 0.42293494 0.76874022 0.30050089
v 0.44777488 0.83687121 0.30328247
v 0.35496596 0.90300616 0.22427410
v 0.60260399 0.24603769 0.18105099
v 0.74750026 0.23017126 0.15235303
v 0.72432142 0.39048175 0.17591941
v 0.58471350 0.38252765 0.19209097
v 0.83701423 0.31995081 0.04165995
v 0.81924435 0.45853043 0.07346145
v 0.34276323 0.90074760 0.07134783
v 0.43940526 1.01204609 -0.04429122
v 0.43586490 0.63519489 -0.18117055
v 0.35681260 0.59790951 -0.02247578
v 0.06797422 -0.71318891 -1.41530076
v -0.15881471 -0.85363236 -1.44785020
v -0.28901922 -0.62368597 -1.21733515
v -0.42466663 -0.40706452 -1.00491835
v -0.52725412 -0.22200072 -0.77106812
v -0.29835984 -0.02827489 -0.77750077
v -0.43412294 -0.75792853 -1.24682383
v 0.26268758 0.39448819 -0.11683813
v 0.43410423 0.39212796 -0.23696639
v 0.29731164 0.38770547 -0.27213992
v -0.05703957 -1.01898769 -0.61607786
v 0.80342582 0.86027105 0.20554989
v 0.97711706 -1.13226240 -1.66200186
v 0.72469720 -1.08576475 -1.80267288
v 0.71258258 -0.94154586 -1.64773261
v 0.97820625 -1.00142528 -1.48264050
v 0.57662234 0.75469761 0.34441650
v 0.72110944 0.77935818 0.30766227
v -0.57908640 -0.26660260 -0.26660330
v -0.57608670 -0.09606840 -0.22124620
v -0.65320927 -0.05659313 -0.26862863
v -0.73045699 -0.23177264 -0.29334936
v -0.25612265 -0.96380350 -1.45997127
v -0.93388081 -0.49809673 -0.74891028
v -0.79761812 -0.33245083 -0.81805795
v -0.03105817 -1.05805220 -1.64094761
v 0.16450624 -0.92403199 -1.63474077
v 0.22399964 -1.08382267 -1.79718882
v -0.08717173 0.21490179 -0.58165228
v 0.21609321 -0.57753991 -1.35398196
v 0.30962629 -0.83065611 -1.57602272
v 0.39035729 -1.02002215 -1.76049940
v 0.42855988 -1.15501978 -1.90808976
v 0.24722979 -1.21583718 -1.93110296
v 0.57877692 1.04539953 -0.04828061
v 0.41214294 1.14355599 0.04711041
v 0.26226216 -1.34808390 -2.11324649
v 0.46817884 -1.28964210 -2.07196959
v 0.49027805 -0.75983914 -1.49759584
v 0.71104871 -0.69187619 -1.38246357
v 0.39104215 -0.52439354 -1.27553854
v 0.60906584 -0.43843296 -1.14163658
v 0.15846727 0.24468863 -0.62144771
v 0.32759800 1.18715318 0.43109313
v 0.32578897 1.08095102 0.21280872
v 0.34078688 0.95316769 0.27461464
v 0.30183130 1.08848549 0.45594488
v 0.33484322 1.01029141 0.13130696
v 0.40535926 1.17529213 0.15911207
v 0.84849189 -0.44646162 -0.96805412
v 0.20535170 0.25444562 0.06196960
v 0.97215184 -0.77045148 -1.17716627
v 1.09718950 -0.38330200 -0.73892917
v 1.19562720 -0.64193859 -0.88186683
v 1.15469610 -1.11410849 -1.33596413
v 1.25486389 -0.95889641 -1.08135800
v 1.17287279 -1.35121341 -1.64765249
v 1.14771525 -1.21907469 -1.49695026
v 1.41506198 -0.78703672 -0.86004612
v 0.61470827 0.94221000 0.53551811
v 0.47713322 0.91042200 0.51866223
v 1.00956606 -1.25842825 -1.81535317
v 1.15031124 -0.89003925 -0.15694677
v 0.05380896 -1.24050588 -0.68260344
v 0.16606326 -1.16672675 -0.67699980
v -0.33812665 -1.45745914 -0.84841945
v -0.10454166 -1.35826712 -0.70262612
v 0.70292959 1.03754992 0.51648535
v -0.25411992 0.27381486 -0.12629778
v -0.25826740 0.22210267 -0.15543736
v 1.63782846 -0.89166309 -0.26349443
v 1.67512539 -0.75639707 -0.19082287
v 1.71003046 -0.53589708 -0.40182200
v 1.75241476 -0.65905793 -0.29157510
v 1.72252148 -0.80860240 -0.42076022
v 1.68322173 -0.68200018 -0.54687130
v 0.24715113 -1.41062175 -0.74564770
v 0.15842984 -1.44368850 -0.75911707
v -0.43729228 -1.20185304 -1.31944497
v -0.51079695 -1.36492554 -1.10904668
v 0.83307213 0.37988004 -0.09176383
v 0.80301979 0.26433425 -0.27333227
v 0.74889694 0.43520803 -0.22206614
v 0.60343816 0.61647076 -0.23490972
v 0.21582834 0.38473857 0.00091997
v 0.35600151 0.43423249 -0.03855806
v 0.67596442 -1.54275167 -0.67434098
v 0.50701234 -1.28881435 -0.55735766
v 1.17739336 -0.64283746 -0.16158714
v 1.25160832 -0.56289156 -0.15450112
v 0.07739709 -0.23720050 -0.15530185
v -0.10527077 0.38220833 -0.45346006
v 0.10172880 0.43506833 -0.49406730
v 0.03521381 -0.02985588 -0.04946666
v 0.66599418 1.22624533 0.46842829
v 0.71373499 1.12581852 0.50075826
v 0.61764615 0.43913112 -0.28580124
v -0.38727908 -0.43400757 -0.29496249
v -0.21906826 0.23511870 -0.47497277
v -0.22121753 0.34734240 -0.31586206
v -0.89786175 -0.65478091 -0.62384245
v 0.75835653 -1.24022667 -1.95427176
v 0.41904901 0.86323801 0.34872863
v 0.35977747 0.93889892 0.48427189
v 0.39938999 1.25264481 0.40299239
v 0.54281985 1.27637925 0.39873779
v -0.34737296 -1.54172393 -1.19904289
v 0.23579401 -1.11083902 -0.65664682
v 1.53471549 -0.60030474 -0.67580997
v 1.59815812 -0.45178363 -0.49009367
v -0.00455688 0.13917597 0.00544047
v -0.69650103 -0.21924986 -0.67424971
v -0.39753874 0.10972739 -0.65251621
v -0.47557675 0.24652208 -0.54538309
v -0.35631660 0.32956374 -0.44281982
v -0.29561090 0.33719676 -0.27135419
v 0.37032348 1.26724498 0.53631010
v 0.51380740 1.28904217 0.54039056
v 0.63455875 1.22347257 0.59220311
v 0.68460581 1.12707349 0.59855847
v 0.66690155 1.03270439 0.58287053
v 0.29714398 1.19135275 0.55711553
v 0.27957285 1.09983899 0.56000887
v 0.34296012 0.96861196 0.53349976
v 0.26747978 1.15023140 0.64469338
v 0.33142119 1.22782050 0.71736026
v 0.57480691 1.09605638 0.88561437
v 0.58047801 1.18298787 0.78085106
v 0.53355377 1.18688940 0.82391185
v 0.51349683 1.12618959 0.91918816
v 0.46696854 1.08487376 1.01998425
v 0.53337403 1.04405526 0.99559716
v 0.45930993 1.23301688 0.75862750
v 0.41589225 1.16456782 0.89158504
v 0.32083783 1.15281755 0.86296584
v 0.29777733 1.10616169 0.97641343
v 0.37835524 1.11719166 1.00772897
v 0.35569810 1.20816337 0.77782645
v 0.46991351 1.26444155 0.71428368
v 0.45980745 1.01783760 1.06418431
v 0.43121862 1.06522372 1.07094861
v 0.35572792 1.07892477 1.06275330
v 0.34858347 1.01710196 1.08590717
v 0.65048985 1.09459860 0.69728396
v 0.59503222 1.03952426 0.87071297
v 0.52168591 0.97801532 0.96955234
v 0.44859427 0.96138112 1.03871380
v 0.55074607 0.95497605 0.85785237
v 0.48615422 0.92943968 0.93709140
v 0.41468642 0.91341173 0.99090040
v 0.47401479 0.89119880 0.83305964
v 0.42641720 0.89183544 0.90948351
v 0.57060407 0.95248718 0.61337251
v 0.64408519 1.01146370 0.62558430
v 0.39530496 0.88430945 0.95579882
v 0.33263535 0.97667000 1.06908583
v 0.26504076 1.13243128 0.80114594
v 0.25066207 1.06050394 0.94260906
v 0.23984110 1.08457826 0.77807562
v 0.21932720 1.02089820 0.91853029
v 0.25374693 1.03416652 1.03531506
v 0.29404849 1.07475228 1.03291250
v 0.58221899 0.95257694 0.55994753
v 0.44266542 0.93114200 0.53611183
v 0.42732943 0.93014313 0.57378379
v 0.36710320 0.87311619 0.79246001
v 0.32504141 0.96251017 0.57696358
v 0.25521490 1.06033760 0.63675527
v 0.23292979 1.01452440 0.77793802
v 0.26338125 0.93679786 0.77536934
v 0.22937896 0.96939365 0.89026003
v 0.26632768 0.92334645 0.87735052
v 0.34447736 0.87882459 0.88667812
v 0.25731785 0.94113236 0.97074889
v 0.24352014 0.99344068 1.01139091
v 0.32911956 0.92501796 1.01403328
v 0.27239007 0.91459580 0.93893486
v 0.33673414 0.90159720 0.95943076
v -0.20788207 0.89611642 0.26296176
v -0.34327161 0.82308086 0.24415874
v -0.32303582 0.82345673 0.17358867
v -0.20324924 0.87301737 0.19505407
v -0.22169789 1.19105561 0.10852471
v -0.16136934 1.09085641 0.20335946
v -0.11214017 1.07629881 0.09496402
v -0.17465908 1.16758234 -0.03369615
v -0.36431986 1.19267730 -0.00086592
v -0.31436233 1.16420705 -0.14897588
v -0.09308323 1.07042609 -0.11578079
v -0.05176359 0.98370364 0.03164456
v 0.15313510 0.55240605 -0.11984331
v 0.12969643 0.63400010 -0.27604709
v -0.20879855 0.32438776 -0.02026893
v -0.24695627 0.37735399 -0.09877586
v -0.16555742 0.97759775 0.24841836
v -0.13582771 0.96106980 0.16543588
v -0.47130653 0.75743743 0.00927231
v -0.40100413 0.73885106 0.11816617
v -0.42596234 0.78832630 0.13304996
v -0.51494420 0.83085515 0.04382576
v 0.07329871 0.39650955 0.02194974
v -0.06476124 0.32804319 0.01185091
v 0.11882804 0.47467900 -0.02903543
v -0.48776949 0.84075367 -0.13210421
v -0.41758788 0.95341754 -0.23842330
v -0.18479313 0.57946298 -0.40042488
v -0.26762200 0.49413612 -0.28837147
v -0.08605576 0.89618069 0.13142169
v -0.28894866 0.77676428 0.18379621
v -0.17000477 0.81473296 0.19802820
v -0.23556404 1.03597848 -0.23269056
v -0.49725281 1.05870490 -0.12768352
v -0.66751875 1.02889037 0.34537712
v -0.59100002 0.95929795 0.09631970
v -0.55180242 0.85938326 0.15131682
v -0.65253239 0.91849331 0.38753719
v -0.54724554 0.92612504 -0.04083043
v -0.53874486 1.07835927 0.03219346
v -0.33867808 0.91155438 0.52002416
v -0.46918046 0.83975554 0.48743869
v -0.28681937 1.00687744 0.52372479
v -0.00895610 0.64212546 -0.40062901
v -0.33909401 1.20371580 0.40067206
v -0.27790116 1.09648667 0.48768742
v -0.45790699 0.79413257 0.19861031
v -0.58246306 0.83925322 0.44327057
v -0.62443732 1.12190240 0.32056990
v -0.46881723 1.20980217 0.30349532
v -0.65737376 1.14095251 0.45381845
v -0.52219294 1.21617921 0.46989073
v -0.37784369 1.19756413 0.54433766
v -0.30578360 1.08832725 0.57616590
v -0.30857522 0.99612901 0.57151602
v -0.69910632 1.04286669 0.46377568
v -0.68032860 0.93059983 0.47432024
v -0.58551477 0.85083430 0.48560550
v -0.71444678 0.96514749 0.59651744
v -0.69256293 1.06697190 0.64057846
v -0.39685002 0.92767973 0.94738324
v -0.39081844 1.01982492 0.84219155
v -0.45273306 1.03546664 0.85440321
v -0.45968986 0.95370749 0.95200958
v -0.41941123 1.12698506 0.74568676
v -0.47076467 1.10882914 0.77427420
v -0.57295968 1.11614258 0.72383436
v -0.56600352 1.02125821 0.83200466
v -0.66197768 0.97639188 0.78169089
v -0.66185613 0.90273537 0.88840811
v -0.57483054 0.94371221 0.94651303
v -0.64901987 1.06060383 0.71875893
v -0.48378468 0.89797600 1.00843449
v -0.46103259 0.84634871 1.02224496
v -0.56964768 1.17466954 0.66876427
v -0.32232108 1.07221006 0.66119196
v -0.34357996 0.96159082 0.82619418
v -0.37252004 0.85685800 0.92940899
v -0.47022687 0.78179804 0.99863221
v -0.34613494 0.86261054 0.79678476
v -0.39163027 0.79009641 0.89810717
v -0.48069606 0.74115630 0.95213677
v -0.39560773 0.76766381 0.75091763
v -0.45015347 0.72067820 0.85586266
v -0.36062045 0.88554850 0.56368054
v -0.30618982 0.97214244 0.61279580
v -0.48388285 0.71761375 0.90176821
v -0.56921512 0.83124951 1.03231187
v -0.56229551 0.76114144 1.00764693
v -0.56967255 0.86753564 1.01498056
v -0.69452722 0.94659637 0.75342274
v -0.67968889 0.85797208 0.87240956
v -0.70758877 0.88343087 0.72783147
v -0.68885601 0.80236780 0.86509782
v -0.65539875 0.81281538 0.96874831
v -0.64023884 0.84582681 0.97603986
v -0.36481391 0.91456634 0.54541199
v -0.48138959 0.85226826 0.50744357
v -0.47595805 0.82664883 0.51311760
v -0.51165213 0.72456564 0.70850125
v -0.59242091 0.83110686 0.49714609
v -0.68641493 0.88878040 0.55675320
v -0.69074948 0.82206562 0.69847000
v -0.62400591 0.75003881 0.69438068
v -0.69026336 0.75767901 0.84065237
v -0.63980652 0.72474401 0.79484845
v -0.53326210 0.69344464 0.81361983
v -0.65331168 0.72876341 0.93438965
v -0.65826982 0.77413147 0.96170089
v -0.55712858 0.72953875 0.97023432
v -0.62699408 0.70382720 0.87904009
v -0.54533003 0.70068749 0.90489950
v -0.55765209 0.41917730 0.14331287
v -0.66538790 0.32022765 0.11213255
v -0.67410727 0.35255839 0.09753591
v -0.57149932 0.44905286 0.11996382
v -0.68442721 0.68765885 0.13561873
v -0.59369379 0.61873097 0.17562496
v -0.57464347 0.66525746 0.07742870
v -0.64812031 0.73666230 0.00134884
v -0.82474809 0.65929801 0.11998463
v -0.79106424 0.72832708 -0.07018524
v -0.58764480 0.70017046 -0.11977977
v -0.53359402 0.64626149 0.00209402
v -0.36014667 0.41556479 -0.21406169
v -0.42712790 0.46411524 -0.35321684
v -0.55100337 0.52081210 0.16585261
v -0.54518041 0.55013018 0.11118725
v -0.85998055 0.29612936 0.00752004
v -0.77192166 0.29330701 0.07563122
v -0.79939878 0.31226738 0.06116332
v -0.88694945 0.33612225 0.02292515
v -0.37074706 0.17096313 -0.07024413
v -0.47972536 0.07518977 -0.12662096
v -0.35342735 0.30101984 -0.10856635
v -0.91333898 0.39105810 -0.09385758
v -0.87774356 0.54631172 -0.19585930
v -0.71033335 0.27604164 -0.41265405
v -0.73042456 0.15726049 -0.32772539
v -0.52260100 0.54886524 0.07772718
v -0.64308464 0.33075445 0.12702611
v -0.54309869 0.42988273 0.13368864
v -0.71755478 0.65115333 -0.20472826
v -0.92728594 0.59695978 -0.05529960
v -0.97473594 0.30540019 0.38694591
v -0.96704652 0.42449082 0.04970517
v -0.89022940 0.31007565 0.04503076
v -0.93752193 0.21523672 0.35055975
v -0.95055745 0.44245163 -0.02215090
v -0.94287879 0.55777699 0.06455913
v -0.59691775 0.26407080 0.37880928
v -0.70408892 0.18925946 0.34356985
v -0.58416804 0.37272985 0.39588996
v -0.56522861 0.41656031 -0.44543821
v -0.65408050 0.05614087 -0.22330260
v -0.68836315 0.51407132 0.44437669
v -0.61194562 0.44591432 0.41910896
v -0.78983793 0.28596803 0.06906975
v -0.84305006 0.16390873 0.32625296
v -0.95283870 0.42700383 0.40350221
v -0.83116431 0.53024962 0.41468676
v -0.92479630 0.36275324 0.52021596
v -0.80727639 0.47222119 0.53034916
v -0.66603114 0.46773784 0.51244475
v -0.59615426 0.40028539 0.44995237
v -0.57843310 0.32931026 0.41130858
v -0.94311623 0.24051342 0.47693176
v -0.91532989 0.16969131 0.42373485
v -0.82970811 0.16403500 0.33763132
v -0.91315063 0.17092173 0.53654384
v -0.86208847 0.25124740 0.62818083
v -0.48424746 0.08046196 0.69649026
v -0.54169744 0.20292308 0.63905673
v -0.56803376 0.19762715 0.65470410
v -0.51627871 0.07989100 0.72425079
v -0.62697823 0.34445053 0.60561148
v -0.63466600 0.30179507 0.63525806
v -0.72745931 0.29988986 0.65472604
v -0.67106502 0.16535394 0.72478736
v -0.79487293 0.09505062 0.67965580
v -0.72392545 -0.00328767 0.73918259
v -0.60940702 0.05231526 0.78617885
v -0.81626366 0.23143775 0.65254276
v -0.50186036 0.00972430 0.76489871
v -0.46158583 0.00313005 0.75881397
v -0.75892188 0.35717866 0.63387283
v -0.56912275 0.32958276 0.50099900
v -0.50088205 0.18525235 0.57742424
v -0.44714641 0.06378531 0.63656070
v -0.44671742 -0.03258025 0.68263101
v -0.50688251 0.12721262 0.50293999
v -0.46771307 0.02879276 0.57550948
v -0.47143036 -0.05520717 0.62235536
v -0.54593494 0.06710015 0.45873505
v -0.51818856 -0.01212251 0.53172588
v -0.61449718 0.22455429 0.36396465
v -0.56858415 0.28365423 0.41540600
v -0.51153744 -0.06295737 0.58334300
v -0.54124386 -0.06319834 0.79857545
v -0.53962469 -0.12218052 0.71993049
v -0.55905377 -0.03026462 0.79561519
v -0.83171570 0.08111837 0.65834583
v -0.74766046 -0.04999562 0.72321788
v -0.84873988 0.03798814 0.60717646
v -0.76408479 -0.08512039 0.67493900
v -0.66015181 -0.09403891 0.77489900
v -0.65573711 -0.06750398 0.77924798
v -0.60918801 0.25227810 0.37658515
v -0.71279730 0.18847195 0.33606793
v -0.71794947 0.16863321 0.32785357
v -0.64468092 -0.00534568 0.43150684
v -0.82851240 0.13934165 0.34590455
v -0.88896996 0.10425701 0.47455675
v -0.81655661 -0.00072659 0.54079298
v -0.74911043 -0.03010657 0.47443569
v -0.74388984 -0.09992615 0.61292434
v -0.71269130 -0.08730460 0.55314101
v -0.60176834 -0.07102698 0.51073744
v -0.65923759 -0.13494405 0.65406827
v -0.66838587 -0.12938454 0.72445215
v -0.54948968 -0.12589245 0.64670709
v -0.64841977 -0.12537857 0.59557986
v -0.56626933 -0.11308444 0.59181801
v -0.57642459 0.03474682 -0.17453367
v -1.03496695 -0.22756817 -0.04426737
v -1.05910006 -0.32242906 -0.08045729
v -1.08395600 -0.33193617 -0.10509399
v -1.03528291 -0.23638901 -0.09273249
v -1.23801576 -0.05999775 -0.10106021
v -1.14178764 -0.08193499 -0.04727827
v -1.12554093 -0.04307335 -0.14793202
v -1.21143551 -0.01288171 -0.21199556
v -1.33481376 -0.12190529 -0.16218966
v -1.31859738 -0.08411265 -0.27184491
v -1.17265474 -0.01498528 -0.28104874
v -1.08628799 -0.04400119 -0.20505418
v -0.80568926 -0.12742149 -0.44898455
v -0.85941749 -0.13608674 -0.57094040
v -0.93246447 -0.56128017 -0.56696621
v -0.86201670 -0.56864941 -0.45181932
v -0.95296685 -0.48759964 -0.37298760
v -1.02340651 -0.50591095 -0.46486577
v -1.07312133 -0.14368149 -0.03297556
v -1.04739236 -0.12509678 -0.10554533
v -1.25702249 -0.41649201 -0.24858023
v -1.16234749 -0.40435696 -0.17888968
v -1.13923005 -0.40683478 -0.14677274
v -1.23481783 -0.44711082 -0.18753899
v -0.78826462 -0.48531289 -0.37155882
v -0.73636285 -0.38787196 -0.33355058
v -0.79688818 -0.32672504 -0.29999666
v -0.88991444 -0.41217602 -0.30724473
v -0.77749500 -0.19632891 -0.31538030
v -1.32126625 -0.35974860 -0.31711981
v -1.35140436 -0.23104924 -0.36727043
v -1.06637730 -0.38691204 -0.65706990
v -1.05087698 -0.47553074 -0.58178788
v -1.05780175 -0.11022340 -0.12934103
v -1.08561062 -0.33440856 -0.13735841
v -1.06407210 -0.22704772 -0.10151366
v -1.28105036 -0.08239872 -0.36353470
v -1.36805662 -0.25068046 -0.26594383
v -1.30942659 -0.48956754 -0.00549066
v -1.32063895 -0.41969524 -0.17672342
v -1.21205156 -0.46351634 -0.15534679
v -1.23814000 -0.50578116 -0.02237276
v -1.32180933 -0.38749609 -0.22975104
v -1.37146236 -0.29537353 -0.16686123
v -1.04723814 -0.27544680 0.08844919
v -1.09132158 -0.38692770 0.02254339
v -1.07481691 -0.21521090 0.12284352
v -0.96605421 -0.21355512 -0.66323706
v -1.24292665 -0.18139535 0.12824022
v -1.14341144 -0.18089562 0.14829168
v -1.11902923 -0.40538640 -0.11585883
v -1.15645386 -0.46607530 -0.01496414
v -1.36400659 -0.40759898 0.02270599
v -1.34318631 -0.25599580 0.06483507
v -1.30454391 -0.47913403 0.11307319
v -1.30511523 -0.33470556 0.18590647
v -1.19037022 -0.24708913 0.21696493
v -1.11619400 -0.22150903 0.17923541
v -1.06068105 -0.23695659 0.14187995
v -1.25004280 -0.54094043 0.03241657
v -1.18920106 -0.53635521 -0.01129713
v -1.12355376 -0.48029813 -0.01263149
v -1.18314939 -0.57869919 0.05913730
v -1.19475616 -0.54011959 0.17014792
v -0.90492381 -0.45390975 0.23872342
v -0.97860145 -0.38943167 0.23804472
v -0.99677861 -0.41187774 0.24800607
v -0.91473331 -0.46289001 0.25859761
v -1.09554011 -0.33674297 0.24761768
v -1.09055515 -0.37915530 0.25469890
v -1.16303668 -0.42687544 0.23870957
v -1.05455517 -0.49343347 0.25222681
v -1.08399492 -0.59347988 0.17958145
v -0.99317374 -0.62662786 0.19398241
v -0.97715092 -0.54012169 0.25878003
v -1.16565778 -0.52885138 0.20523169
v -0.88029306 -0.51575251 0.26763625
v -0.85063840 -0.51964508 0.26545513
v -1.20445051 -0.40424748 0.23620860
v -1.04645190 -0.26924812 0.19314507
v -0.92772819 -0.36810449 0.20797642
v -0.84855090 -0.45429464 0.22040580
v -0.82104079 -0.53534651 0.22502447
v -0.90819878 -0.35560257 0.15561919
v -0.82310441 -0.45124800 0.17626057
v -0.80122601 -0.53443183 0.18145851
v -0.90042483 -0.37945276 0.07947025
v -0.83275052 -0.46972676 0.12247174
v -0.99878160 -0.30789167 0.04907562
v -1.00830568 -0.26882738 0.12502792
v -0.81672115 -0.52818920 0.14753583
v -0.87731733 -0.60041502 0.25910470
v -0.84264273 -0.60310367 0.20613520
v -0.90864245 -0.59014142 0.26508920
v -1.08839508 -0.61053758 0.15213319
v -0.98402081 -0.64926914 0.17283904
v -1.07647554 -0.62493077 0.09584818
v -0.96020945 -0.65231167 0.13264666
v -0.91517700 -0.65071803 0.21219644
v -0.93961789 -0.62615049 0.22695192
v -1.02424055 -0.30041378 0.07222984
v -1.05919671 -0.39426370 0.02669182
v -1.03656690 -0.40565234 -0.00422775
v -0.93306265 -0.45711587 0.01195397
v -1.09668710 -0.49432127 -0.03961907
v -1.14909835 -0.56046854 -0.00655344
v -1.03782209 -0.61217010 0.04162171
v -0.98655666 -0.55947247 0.00098002
v -0.92840788 -0.63801470 0.10175614
v -0.89944788 -0.58952384 0.06448548
v -0.86052336 -0.52316042 0.07000511
v -0.86286271 -0.62411245 0.14627178
v -0.87766806 -0.64596338 0.17640747
v -0.82864304 -0.59314937 0.16729996
v -0.85343531 -0.59814328 0.11688453
v -0.83321354 -0.56811337 0.12769235
v -0.98074820 -0.50579741 -0.62105149
v 1.53537056 -0.20758987 -0.20106354
v 1.41380994 -0.24112438 -0.14960184
v 1.48434582 -0.52117366 0.09422837
v 1.37136199 -0.41057271 0.03981467
v 1.64405111 -0.55044340 0.09142917
v 1.81361048 -0.44894814 -0.06269573
v 1.75019791 -0.53383636 0.01145777
v 1.34619095 -0.31296665 -0.04958452
v 1.66412304 -0.23701690 -0.22260112
v 1.79285300 -0.33799224 -0.17370339
v 1.71192589 -0.07345468 -0.05087371
v 1.83993497 -0.20006089 0.01098467
v 1.85547340 -0.32672113 0.12116777
v 1.74741539 -0.43634557 0.16526011
v 1.64738277 -0.48137721 0.20135989
v 1.53682411 -0.09437678 -0.07040258
v 1.41489538 -0.14501489 -0.03511634
v 1.34873450 -0.26233547 0.04642147
v 1.49137404 -0.00228980 0.08818581
v 1.56506522 0.03706433 0.29949582
v 1.58847241 -0.18187511 0.68454155
v 1.64509505 -0.24534212 0.55857399
v 1.65260941 -0.17873769 0.54719583
v 1.60851000 -0.12807797 0.66829635
v 1.71184374 -0.23168769 0.44970522
v 1.69308975 -0.17823110 0.45916212
v 1.66639843 -0.08015327 0.37536191
v 1.62001975 -0.04045125 0.49390596
v 1.58094727 0.00697801 0.35385775
v 1.51825866 0.03577569 0.42277213
v 1.56882348 -0.00193534 0.60478873
v 1.58251116 -0.06296077 0.71617744
v 1.52668515 0.02199765 0.69792243
v 1.54148634 -0.09900348 0.75574955
v 1.72881667 -0.04535022 0.35864737
v 1.70404449 -0.36458471 0.36699643
v 1.60992153 -0.32329868 0.54311388
v 1.53151784 -0.24133998 0.68303479
v 1.48230226 -0.13475875 0.75606608
v 1.52150861 -0.36741576 0.52133035
v 1.45210893 -0.27231250 0.63787666
v 1.40356048 -0.16125010 0.69097130
v 1.41774000 -0.34903527 0.47526293
v 1.38254301 -0.24851855 0.58386576
v 1.48298061 -0.44500315 0.23302782
v 1.61113316 -0.45045875 0.29547641
v 1.37459736 -0.16931588 0.63689095
v 1.49014071 0.02963429 0.74171993
v 1.42453921 -0.00542631 0.73399605
v 1.46234170 0.05618050 0.37642301
v 1.48464101 0.08231787 0.52946367
v 1.42279276 0.08253486 0.50975827
v 1.39157468 0.03744313 0.31911384
v 1.36306534 0.06683550 0.49138080
v 1.43150309 0.08956425 0.63376779
v 1.48698602 0.07634634 0.62096262
v 1.49819878 -0.48298055 0.18262528
v 1.38768779 -0.39541420 0.11341093
v 1.38036184 -0.35088994 0.15814169
v 1.32404544 -0.26067015 0.39007234
v 1.33423220 -0.21208435 0.11175368
v 1.39302168 -0.07809053 0.08152611
v 1.32295680 -0.01945687 0.31033234
v 1.29289456 -0.13167396 0.32768209
v 1.31463353 0.00206990 0.48492136
v 1.30484799 -0.06833596 0.48926421
v 1.32140326 -0.17360438 0.53811984
v 1.33511563 -0.00079448 0.60151461
v 1.37136618 0.06255705 0.62050899
v 1.36605379 -0.06111252 0.67585502
v 1.32557729 -0.05345036 0.57131627
v 1.34527246 -0.10649493 0.61604221
v -0.79230896 -0.68297036 -0.49152409
v -0.68272406 -0.60996144 -0.39846854
v -0.64309587 -0.74592906 -0.47492421
v -0.56266717 -0.93613518 -0.56217883
v -0.60031781 -1.11850620 -0.74214555
v -0.41515099 -0.87212140 -0.51688616
v -0.51010038 -0.67988073 -0.42206099
v -0.57142405 -0.46935151 -0.33214954
v -0.19711645 -0.95690426 -0.58230565
f 2 3 1
f 1 3 4
f 5 6 8
f 8 6 7
f 9 4 10
f 10 4 3
f 12 13 11
f 11 13 9
f 14 12 16
f 16 12 15
f 18 19 17
f 17 19 20
f 22 23 21
f 21 23 24
f 26 27 25
f 25 27 28
f 30 31 29
f 29 31 32
f 33 34 36
f 36 34 35
f 37 38 40
f 40 38 39
f 41 42 6
f 6 42 43
f 6 43 7
f 7 43 44
f 45 34 46
f 46 34 33
f 48 49 47
f 47 49 50
f 52 53 51
f 51 53 54
f 56 52 55
f 55 52 51
f 58 59 57
f 57 59 60
f 61 62 4
f 4 62 1
f 64 65 63
f 63 65 66
f 68 69 67
f 67 69 70
f 72 73 71
f 71 73 74
f 76 77 75
f 75 77 78
f 53 79 54
f 54 79 80
f 82 83 81
f 81 83 84
f 85 86 52
f 52 86 53
f 57 60 87
f 87 60 88
f 89 90 43
f 43 90 44
f 43 42 89
f 89 42 91
f 40 39 92
f 92 39 93
f 94 70 64
f 64 70 69
f 13 61 9
f 9 61 4
f 25 28 69
f 69 28 95
f 96 25 68
f 68 25 69
f 98 99 97
f 97 99 100
f 101 102 104
f 104 102 103
f 106 30 105
f 105 30 29
f 51 54 107
f 107 54 108
f 54 80 108
f 108 80 109
f 111 112 110
f 110 112 113
f 115 5 114
f 114 5 116
f 115 41 5
f 5 41 6
f 36 35 111
f 111 35 117
f 35 118 117
f 117 118 119
f 34 120 35
f 35 120 118
f 34 45 120
f 120 45 121
f 125 126 124
f 124 126 127
f 128 129 14
f 14 129 130
f 33 131 46
f 46 131 132
f 133 94 63
f 63 94 64
f 134 135 137
f 137 135 136
f 139 140 138
f 138 140 141
f 77 142 78
f 78 142 143
f 144 145 20
f 20 145 146
f 148 149 147
f 147 149 72
f 151 152 150
f 150 152 153
f 82 101 83
f 83 101 104
f 101 82 155
f 155 82 154
f 156 157 58
f 58 157 59
f 158 68 147
f 147 68 67
f 159 146 15
f 15 146 16
f 68 158 96
f 96 158 160
f 129 66 130
f 130 66 65
f 162 163 161
f 161 163 164
f 166 167 165
f 165 167 168
f 170 171 169
f 169 171 172
f 174 171 173
f 173 171 170
f 176 177 175
f 175 177 178
f 180 181 179
f 179 181 24
f 182 183 21
f 21 183 184
f 81 185 82
f 82 185 154
f 186 187 188
f 188 187 144
f 158 71 160
f 160 71 189
f 190 135 157
f 157 135 59
f 169 172 139
f 139 172 140
f 147 72 158
f 158 72 71
f 192 193 191
f 191 193 194
f 167 166 49
f 49 166 195
f 196 190 50
f 50 190 157
f 197 198 200
f 200 198 199
f 21 24 182
f 182 24 181
f 146 159 20
f 20 159 17
f 182 181 81
f 81 181 185
f 201 185 180
f 180 185 181
f 202 203 83
f 83 203 84
f 205 206 204
f 204 206 85
f 207 22 184
f 184 22 21
f 179 24 208
f 208 24 23
f 208 209 179
f 179 209 205
f 209 210 205
f 205 210 206
f 212 206 211
f 211 206 210
f 179 205 180
f 180 205 204
f 213 176 88
f 88 176 214
f 86 85 212
f 212 85 206
f 193 217 218
f 217 219 218
f 218 219 220
f 219 18 220
f 220 18 17
f 19 221 20
f 20 221 144
f 222 223 225
f 225 223 224
f 175 226 176
f 176 226 214
f 227 87 214
f 214 87 88
f 220 17 228
f 228 17 159
f 134 213 60
f 60 213 88
f 138 229 151
f 151 229 152
f 193 192 210
f 210 192 211
f 230 194 218
f 218 194 193
f 231 232 228
f 228 232 230
f 233 234 91
f 91 234 89
f 235 236 93
f 93 236 92
f 230 232 234
f 234 232 237
f 47 238 48
f 48 238 239
f 240 191 235
f 235 191 236
f 5 8 116
f 116 8 241
f 242 243 189
f 189 243 160
f 244 245 98
f 98 245 99
f 156 246 47
f 47 246 238
f 76 247 77
f 77 247 248
f 250 125 249
f 249 125 124
f 252 253 251
f 251 253 254
f 111 110 36
f 36 110 255
f 256 33 255
f 255 33 36
f 257 258 154
f 154 258 155
f 63 169 133
f 133 169 139
f 66 170 63
f 63 170 169
f 173 170 129
f 129 170 66
f 129 128 173
f 173 128 259
f 128 260 259
f 259 260 261
f 213 134 262
f 262 134 137
f 263 264 186
f 186 264 187
f 112 265 113
f 113 265 266
f 11 267 268
f 234 233 230
f 230 233 194
f 153 269 70
f 70 269 67
f 175 178 165
f 165 178 141
f 150 153 94
f 94 153 70
f 271 221 270
f 270 221 207
f 269 153 272
f 272 153 152
f 121 45 109
f 109 45 108
f 47 50 156
f 156 50 157
f 57 273 58
f 58 273 274
f 145 275 260
f 260 275 261
f 276 149 143
f 143 149 78
f 148 269 75
f 75 269 272
f 207 277 270
f 270 277 278
f 195 196 49
f 49 196 50
f 59 135 60
f 60 135 134
f 83 104 202
f 202 104 279
f 149 148 78
f 78 148 75
f 247 278 248
f 248 278 277
f 183 182 84
f 84 182 81
f 48 239 281
f 281 239 282
f 227 223 283
f 283 223 222
f 223 226 224
f 224 226 168
f 281 282 224
f 224 282 225
f 165 168 175
f 175 168 226
f 264 263 138
f 138 263 229
f 14 16 128
f 128 16 260
f 220 228 218
f 218 228 230
f 87 227 284
f 284 227 283
f 260 16 145
f 145 16 146
f 244 98 258
f 258 98 155
f 58 274 156
f 156 274 246
f 107 285 51
f 51 285 55
f 243 286 160
f 160 286 96
f 234 237 89
f 89 237 90
f 46 132 107
f 107 132 285
f 253 252 249
f 249 252 250
f 286 26 96
f 96 26 25
f 106 105 287
f 287 105 288
f 272 152 289
f 289 152 229
f 138 151 139
f 139 151 133
f 183 290 161
f 161 290 162
f 291 292 277
f 277 292 293
f 151 150 133
f 133 150 94
f 262 275 177
f 177 275 187
f 144 187 145
f 145 187 275
f 273 57 284
f 284 57 87
f 174 136 190
f 190 136 135
f 111 117 112
f 112 117 38
f 117 119 38
f 38 119 123
f 112 38 265
f 265 38 37
f 287 288 254
f 254 288 251
f 228 159 231
f 231 159 15
f 223 227 226
f 226 227 214
f 147 67 148
f 148 67 269
f 224 168 281
f 281 168 167
f 199 163 200
f 200 163 162
f 45 46 108
f 108 46 107
f 281 167 48
f 48 167 49
f 161 164 291
f 291 164 292
f 38 123 39
f 293 294 277
f 277 294 248
f 284 283 296
f 296 283 295
f 284 296 273
f 273 296 297
f 274 273 298
f 298 273 297
f 246 274 299
f 299 274 298
f 283 222 295
f 295 222 300
f 222 225 300
f 300 225 301
f 301 225 302
f 302 225 282
f 303 304 300
f 300 304 295
f 306 307 305
f 305 307 308
f 309 310 308
f 308 310 305
f 308 307 312
f 312 307 311
f 313 314 312
f 312 314 315
f 311 316 312
f 312 316 313
f 317 304 311
f 311 304 316
f 315 309 312
f 312 309 308
f 318 319 321
f 321 319 320
f 319 318 309
f 309 318 310
f 311 307 317
f 317 307 306
f 306 297 317
f 317 297 296
f 306 322 297
f 297 322 298
f 305 323 306
f 306 323 322
f 323 305 324
f 324 305 310
f 304 317 295
f 295 317 296
f 318 325 310
f 310 325 324
f 323 324 326
f 326 324 327
f 324 325 327
f 327 325 328
f 326 327 329
f 329 327 330
f 329 331 326
f 326 331 332
f 333 330 328
f 328 330 327
f 323 326 322
f 322 326 332
f 322 332 298
f 298 332 299
f 325 318 334
f 334 318 321
f 313 316 335
f 335 316 304
f 335 336 313
f 313 336 314
f 304 303 335
f 335 303 337
f 336 335 338
f 338 335 337
f 336 339 314
f 314 339 340
f 246 299 238
f 238 299 341
f 239 342 282
f 282 342 302
f 342 239 341
f 341 239 238
f 341 331 342
f 342 331 343
f 331 329 343
f 343 329 344
f 342 343 302
f 302 343 345
f 341 299 331
f 331 299 332
f 346 301 345
f 345 301 302
f 346 303 301
f 301 303 300
f 347 337 346
f 346 337 303
f 347 346 348
f 348 346 345
f 349 347 350
f 350 347 348
f 343 344 345
f 345 344 348
f 344 351 348
f 348 351 350
f 337 347 338
f 338 347 349
f 353 338 352
f 352 338 349
f 352 355 354
f 354 355 356
f 352 349 355
f 355 349 350
f 352 354 353
f 353 354 334
f 353 334 339
f 339 334 321
f 339 336 353
f 353 336 338
f 329 330 344
f 344 330 351
f 356 351 333
f 333 351 330
f 356 355 351
f 351 355 350
f 354 356 328
f 328 356 333
f 328 325 354
f 354 325 334
f 309 315 319
f 319 315 320
f 320 340 321
f 321 340 339
f 320 315 340
f 340 315 314
f 137 136 261
f 261 136 259
f 140 166 141
f 141 166 165
f 172 171 195
f 195 171 196
f 171 174 196
f 196 174 190
f 178 177 264
f 264 177 187
f 172 195 140
f 140 195 166
f 137 261 262
f 262 261 275
f 178 264 141
f 141 264 138
f 262 177 213
f 213 177 176
f 136 174 259
f 259 174 173
f 358 359 357
f 357 359 360
f 362 363 361
f 361 363 364
f 361 364 365
f 365 364 366
f 367 368 370
f 370 368 369
f 76 371 247
f 247 371 372
f 373 374 362
f 362 374 363
f 376 377 375
f 375 377 378
f 289 229 380
f 380 229 379
f 381 379 263
f 263 379 229
f 383 384 382
f 382 384 385
f 386 368 374
f 374 368 363
f 76 289 371
f 371 289 380
f 377 376 359
f 359 376 387
f 388 386 360
f 360 386 374
f 389 383 366
f 366 383 390
f 392 393 391
f 391 393 394
f 383 382 390
f 390 382 395
f 396 365 390
f 390 365 366
f 389 366 367
f 367 366 364
f 357 397 358
f 358 397 398
f 373 399 357
f 357 399 397
f 389 367 400
f 400 367 370
f 382 385 375
f 375 385 372
f 357 360 373
f 373 360 374
f 361 401 362
f 362 401 402
f 387 388 359
f 359 388 360
f 363 368 364
f 364 368 367
f 358 398 403
f 403 398 404
f 396 392 405
f 405 392 391
f 392 395 393
f 393 395 378
f 393 403 394
f 394 403 404
f 375 378 382
f 382 378 395
f 365 396 406
f 406 396 405
f 362 402 373
f 373 402 399
f 271 270 400
f 400 270 384
f 401 361 406
f 406 361 365
f 381 369 386
f 386 369 368
f 392 396 395
f 395 396 390
f 393 378 403
f 403 378 377
f 403 377 358
f 358 377 359
f 406 405 408
f 408 405 407
f 406 408 401
f 401 408 409
f 401 409 402
f 402 409 410
f 402 410 399
f 399 410 411
f 405 391 407
f 407 391 412
f 391 394 412
f 412 394 413
f 394 404 413
f 413 404 414
f 415 416 412
f 412 416 407
f 418 419 417
f 417 419 420
f 421 422 418
f 418 422 419
f 419 422 424
f 424 422 423
f 425 426 424
f 424 426 427
f 423 428 424
f 424 428 425
f 427 420 424
f 424 420 419
f 420 429 417
f 417 429 430
f 423 422 431
f 431 422 421
f 421 409 431
f 431 409 408
f 421 432 409
f 409 432 410
f 418 433 421
f 421 433 432
f 434 433 417
f 417 433 418
f 431 416 423
f 423 416 428
f 416 431 407
f 407 431 408
f 435 434 430
f 430 434 417
f 433 434 436
f 436 434 437
f 434 435 437
f 437 435 438
f 436 437 439
f 439 437 440
f 439 441 436
f 436 441 442
f 438 443 437
f 437 443 440
f 436 442 433
f 433 442 432
f 432 442 410
f 410 442 411
f 435 430 445
f 445 430 444
f 430 429 444
f 444 429 446
f 425 428 447
f 447 428 416
f 426 425 448
f 448 425 447
f 416 415 447
f 447 415 449
f 447 449 448
f 448 449 450
f 451 452 448
f 448 452 426
f 446 452 444
f 444 452 451
f 399 411 397
f 397 411 453
f 398 454 404
f 404 454 414
f 454 398 453
f 453 398 397
f 453 441 454
f 454 441 455
f 441 439 455
f 455 439 456
f 454 455 414
f 414 455 457
f 441 453 442
f 442 453 411
f 458 413 457
f 457 413 414
f 458 415 413
f 413 415 412
f 458 459 415
f 415 459 449
f 459 458 460
f 460 458 457
f 461 459 462
f 462 459 460
f 455 456 457
f 457 456 460
f 456 463 460
f 460 463 462
f 459 461 449
f 449 461 450
f 465 450 464
f 464 450 461
f 464 467 466
f 466 467 468
f 464 461 467
f 467 461 462
f 464 466 465
f 465 466 445
f 465 445 451
f 451 445 444
f 451 448 465
f 465 448 450
f 439 440 456
f 456 440 463
f 468 463 443
f 443 463 440
f 468 467 463
f 463 467 462
f 466 468 438
f 438 468 443
f 438 435 466
f 466 435 445
f 420 427 429
f 429 427 446
f 446 427 452
f 452 427 426
f 370 369 188
f 188 369 186
f 371 376 372
f 372 376 375
f 380 379 387
f 387 379 388
f 379 381 388
f 388 381 386
f 385 384 278
f 278 384 270
f 380 387 371
f 371 387 376
f 400 370 271
f 271 370 188
f 385 278 372
f 372 278 247
f 400 384 389
f 389 384 383
f 369 381 186
f 186 381 263
f 221 271 144
f 144 271 188
f 221 19 207
f 207 19 22
f 19 18 22
f 22 18 23
f 18 219 23
f 23 219 208
f 469 470 472
f 472 470 471
f 474 475 473
f 473 475 476
f 473 476 477
f 477 476 478
f 480 481 479
f 479 481 482
f 483 484 474
f 474 484 475
f 486 487 485
f 485 487 488
f 489 490 77
f 77 490 142
f 491 489 248
f 248 489 77
f 493 494 492
f 492 494 495
f 496 480 484
f 484 480 475
f 486 497 487
f 487 497 471
f 498 496 472
f 472 496 484
f 499 493 478
f 478 493 500
f 501 502 504
f 504 502 503
f 493 492 500
f 500 492 505
f 506 477 500
f 500 477 478
f 499 478 479
f 479 478 476
f 469 507 470
f 470 507 508
f 483 509 469
f 469 509 507
f 479 482 499
f 499 482 510
f 492 495 485
f 485 495 511
f 483 469 484
f 484 469 472
f 473 512 474
f 474 512 513
f 497 498 471
f 471 498 472
f 475 480 476
f 476 480 479
f 470 508 514
f 514 508 515
f 506 502 516
f 516 502 501
f 503 502 488
f 488 502 505
f 514 515 503
f 503 515 504
f 485 488 492
f 492 488 505
f 477 506 517
f 517 506 516
f 474 513 483
f 483 513 509
f 510 292 494
f 494 292 164
f 512 473 517
f 517 473 477
f 491 481 496
f 496 481 480
f 502 506 505
f 505 506 500
f 503 488 514
f 514 488 487
f 514 487 470
f 470 487 471
f 517 516 519
f 519 516 518
f 517 519 512
f 512 519 520
f 512 520 513
f 513 520 521
f 513 521 509
f 509 521 522
f 516 501 518
f 518 501 523
f 501 504 523
f 523 504 524
f 524 504 525
f 525 504 515
f 526 527 523
f 523 527 518
f 529 530 528
f 528 530 531
f 532 533 529
f 529 533 530
f 530 533 535
f 535 533 534
f 536 537 535
f 535 537 538
f 534 539 535
f 535 539 536
f 538 531 535
f 535 531 530
f 540 541 531
f 531 541 528
f 533 532 534
f 534 532 542
f 532 520 542
f 542 520 519
f 532 543 520
f 520 543 521
f 529 544 532
f 532 544 543
f 544 529 545
f 545 529 528
f 534 542 539
f 539 542 527
f 527 542 518
f 518 542 519
f 541 546 528
f 528 546 545
f 547 544 548
f 548 544 545
f 546 549 545
f 545 549 548
f 550 547 551
f 551 547 548
f 547 550 553
f 553 550 552
f 549 554 548
f 548 554 551
f 544 547 543
f 543 547 553
f 543 553 521
f 521 553 522
f 546 541 556
f 556 541 555
f 541 540 555
f 555 540 557
f 536 539 558
f 558 539 527
f 537 536 559
f 559 536 558
f 527 526 558
f 558 526 560
f 559 558 561
f 561 558 560
f 559 562 537
f 537 562 563
f 557 563 555
f 555 563 562
f 509 522 507
f 507 522 564
f 508 565 515
f 515 565 525
f 565 508 564
f 564 508 507
f 564 552 565
f 565 552 566
f 552 550 566
f 566 550 567
f 565 566 525
f 525 566 568
f 564 522 552
f 552 522 553
f 569 524 568
f 568 524 525
f 569 526 524
f 524 526 523
f 570 560 569
f 569 560 526
f 570 569 571
f 571 569 568
f 572 570 573
f 573 570 571
f 566 567 568
f 568 567 571
f 567 574 571
f 571 574 573
f 570 572 560
f 560 572 561
f 576 561 575
f 575 561 572
f 575 578 577
f 577 578 579
f 575 572 578
f 578 572 573
f 575 577 576
f 576 577 556
f 576 556 562
f 562 556 555
f 562 559 576
f 576 559 561
f 550 551 567
f 567 551 574
f 579 574 554
f 554 574 551
f 579 578 574
f 574 578 573
f 579 554 577
f 577 554 549
f 549 546 577
f 577 546 556
f 531 538 540
f 540 538 557
f 557 538 563
f 563 538 537
f 481 294 482
f 482 294 293
f 580 486 511
f 511 486 485
f 490 489 497
f 497 489 498
f 489 491 498
f 498 491 496
f 163 495 164
f 164 495 494
f 580 490 486
f 486 490 497
f 482 293 510
f 510 293 292
f 495 163 511
f 511 163 199
f 494 493 510
f 510 493 499
f 481 491 294
f 294 491 248
f 582 583 581
f 581 583 584
f 586 587 585
f 585 587 588
f 585 588 589
f 589 588 590
f 592 593 591
f 591 593 594
f 595 596 598
f 598 596 597
f 599 600 586
f 586 600 587
f 601 602 604
f 604 602 603
f 605 606 608
f 608 606 607
f 609 607 200
f 200 607 606
f 610 611 613
f 613 611 612
f 600 614 587
f 587 614 592
f 596 605 597
f 597 605 608
f 602 615 603
f 603 615 583
f 616 614 584
f 584 614 600
f 611 618 617
f 617 618 590
f 620 621 619
f 619 621 622
f 610 623 611
f 611 623 618
f 624 589 618
f 618 589 590
f 617 590 591
f 591 590 588
f 581 625 582
f 582 625 626
f 599 627 581
f 581 627 625
f 591 594 617
f 617 594 628
f 601 610 598
f 598 610 613
f 581 584 599
f 599 584 600
f 585 629 586
f 586 629 630
f 615 616 583
f 583 616 584
f 587 592 588
f 588 592 591
f 582 626 631
f 631 626 632
f 624 620 633
f 633 620 619
f 621 620 604
f 604 620 623
f 631 632 621
f 621 632 622
f 610 601 623
f 623 601 604
f 589 624 634
f 634 624 633
f 586 630 599
f 599 630 627
f 203 202 628
f 628 202 612
f 629 585 634
f 634 585 589
f 609 593 614
f 614 593 592
f 620 624 623
f 623 624 618
f 631 621 603
f 603 621 604
f 582 631 583
f 583 631 603
f 634 633 636
f 636 633 635
f 634 636 629
f 629 636 637
f 629 637 630
f 630 637 638
f 630 638 627
f 627 638 639
f 633 619 635
f 635 619 640
f 619 622 640
f 640 622 641
f 641 622 642
f 642 622 632
f 644 635 643
f 643 635 640
f 645 646 648
f 648 646 647
f 649 650 646
f 646 650 647
f 647 650 652
f 652 650 651
f 652 653 655
f 655 653 654
f 651 656 652
f 652 656 653
f 655 648 652
f 652 648 647
f 648 657 645
f 645 657 658
f 650 649 651
f 651 649 659
f 649 637 659
f 659 637 636
f 649 660 637
f 637 660 638
f 661 660 646
f 646 660 649
f 662 661 645
f 645 661 646
f 651 659 656
f 656 659 644
f 644 659 635
f 635 659 636
f 663 662 658
f 658 662 645
f 664 661 665
f 665 661 662
f 663 666 662
f 662 666 665
f 667 664 668
f 668 664 665
f 664 667 670
f 670 667 669
f 666 671 665
f 665 671 668
f 661 664 660
f 660 664 670
f 660 670 638
f 638 670 639
f 658 672 663
f 663 672 673
f 658 657 672
f 672 657 674
f 653 656 675
f 675 656 644
f 653 675 654
f 654 675 676
f 675 644 677
f 677 644 643
f 676 675 678
f 678 675 677
f 679 680 676
f 676 680 654
f 674 680 672
f 672 680 679
f 627 639 625
f 625 639 681
f 626 682 632
f 632 682 642
f 681 682 625
f 625 682 626
f 669 683 681
f 681 683 682
f 667 684 669
f 669 684 683
f 682 683 642
f 642 683 685
f 681 639 669
f 669 639 670
f 686 641 685
f 685 641 642
f 641 686 640
f 640 686 643
f 686 687 643
f 643 687 677
f 687 686 688
f 688 686 685
f 689 687 690
f 690 687 688
f 683 684 685
f 685 684 688
f 684 691 688
f 688 691 690
f 687 689 677
f 677 689 678
f 693 678 692
f 692 678 689
f 692 695 694
f 694 695 696
f 692 689 695
f 695 689 690
f 692 694 693
f 693 694 673
f 693 673 679
f 679 673 672
f 679 676 693
f 693 676 678
f 684 667 691
f 691 667 668
f 696 691 671
f 671 691 668
f 696 695 691
f 691 695 690
f 694 696 666
f 666 696 671
f 666 663 694
f 694 663 673
f 648 655 657
f 657 655 674
f 674 655 680
f 680 655 654
f 593 162 594
f 594 162 290
f 598 597 601
f 601 597 602
f 615 608 616
f 616 608 607
f 607 609 616
f 616 609 614
f 697 595 613
f 613 595 598
f 597 608 602
f 602 608 615
f 594 290 628
f 628 290 203
f 628 612 617
f 617 612 611
f 593 609 162
f 162 609 200
f 105 29 698
f 698 29 699
f 268 126 701
f 701 126 700
f 126 125 700
f 700 125 702
f 252 703 250
f 250 703 704
f 32 268 705
f 705 268 701
f 288 105 706
f 706 105 698
f 29 32 699
f 699 32 705
f 707 251 706
f 706 251 288
f 250 704 125
f 125 704 702
f 703 252 707
f 707 252 251
f 706 708 707
f 707 708 709
f 707 709 703
f 703 709 710
f 703 710 704
f 704 710 711
f 704 711 702
f 702 711 712
f 706 698 708
f 708 698 713
f 698 699 713
f 713 699 714
f 699 705 714
f 714 705 715
f 717 708 716
f 716 708 713
f 719 720 718
f 718 720 721
f 722 723 719
f 719 723 720
f 724 725 723
f 723 725 720
f 724 726 725
f 725 726 727
f 728 721 725
f 725 721 720
f 721 728 729
f 729 728 730
f 729 731 721
f 721 731 718
f 724 723 732
f 732 723 722
f 722 710 732
f 732 710 709
f 722 733 710
f 710 733 711
f 719 734 722
f 722 734 733
f 734 719 735
f 735 719 718
f 724 732 726
f 726 732 717
f 717 732 708
f 708 732 709
f 731 736 718
f 718 736 735
f 737 734 738
f 738 734 735
f 736 739 735
f 735 739 738
f 740 737 741
f 741 737 738
f 737 740 743
f 743 740 742
f 739 744 738
f 738 744 741
f 734 737 733
f 733 737 743
f 733 743 711
f 711 743 712
f 736 731 746
f 746 731 745
f 731 729 745
f 745 729 730
f 727 726 747
f 747 726 717
f 748 727 749
f 749 727 747
f 747 717 750
f 750 717 716
f 749 747 751
f 751 747 750
f 749 752 748
f 748 752 753
f 730 753 745
f 745 753 752
f 728 725 748
f 748 725 727
f 730 728 753
f 753 728 748
f 700 702 754
f 754 702 712
f 705 701 715
f 715 701 755
f 754 755 700
f 700 755 701
f 742 756 754
f 754 756 755
f 740 757 742
f 742 757 756
f 755 756 715
f 715 756 758
f 754 712 742
f 742 712 743
f 759 714 758
f 758 714 715
f 714 759 713
f 713 759 716
f 759 760 716
f 716 760 750
f 760 759 761
f 761 759 758
f 762 760 763
f 763 760 761
f 756 757 758
f 758 757 761
f 757 764 761
f 761 764 763
f 760 762 750
f 750 762 751
f 766 751 765
f 765 751 762
f 767 765 769
f 769 765 768
f 765 762 768
f 768 762 763
f 765 767 766
f 766 767 746
f 766 746 752
f 752 746 745
f 752 749 766
f 766 749 751
f 757 740 764
f 764 740 741
f 769 764 744
f 744 764 741
f 769 768 764
f 764 768 763
f 767 769 739
f 739 769 744
f 739 736 767
f 767 736 746
f 219 217 208
f 208 217 209
f 209 217 210
f 210 217 193
f 198 580 199
f 199 580 511
f 76 75 289
f 289 75 272
f 277 207 291
f 291 207 184
f 290 183 203
f 203 183 84
f 490 580 142
f 142 580 198
f 142 198 143
f 143 198 197
f 149 276 72
f 72 276 73
f 104 103 279
f 279 103 770
f 770 596 279
f 279 596 595
f 605 596 771
f 771 596 770
f 771 770 772
f 772 770 103
f 772 103 773
f 773 103 102
f 155 774 101
f 101 774 102
f 773 102 97
f 97 102 774
f 775 773 100
f 100 773 97
f 773 775 772
f 772 775 776
f 772 776 771
f 771 776 777
f 200 606 197
f 197 606 777
f 189 71 778
f 778 71 74
f 97 774 98
f 98 774 155
f 183 161 184
f 184 161 291
f 777 276 197
f 197 276 143
f 777 606 771
f 771 606 605
f 613 612 697
f 697 612 202
f 595 697 279
f 279 697 202
f 73 276 776
f 776 276 777
f 776 775 73
f 73 775 74
f 100 778 775
f 775 778 74
f 778 100 189
f 189 100 99
f 245 242 99
f 99 242 189
f 131 33 256
f 28 1 95
f 95 1 62
f 27 2 28
f 28 2 1
f 265 115 266
f 266 115 114
f 95 62 69
f 69 62 64
f 62 61 64
f 64 61 65
f 61 13 65
f 65 13 130
f 13 12 130
f 130 12 14
f 31 11 32
f 32 11 268
f 15 12 31
f 31 12 11
f 31 30 15
f 15 30 231
f 30 106 231
f 231 106 232
f 287 237 106
f 106 237 232
f 254 90 287
f 287 90 237
f 253 44 254
f 254 44 90
f 253 249 44
f 44 249 7
f 267 127 268
f 268 127 126
f 10 3 241
f 241 3 116
f 3 2 116
f 116 2 114
f 2 27 114
f 114 27 266
f 27 26 266
f 266 26 113
f 26 286 113
f 113 286 110
f 286 243 110
f 110 243 255
f 243 242 255
f 255 242 256
f 242 245 256
f 256 245 131
f 245 244 131
f 131 244 132
f 265 37 115
f 115 37 41
f 41 37 42
f 42 37 40
f 92 91 40
f 40 91 42
f 236 233 92
f 92 233 91
f 191 194 236
f 236 194 233
f 258 285 244
f 244 285 132
f 257 55 258
f 258 55 285
f 257 154 201
f 201 154 185
f 56 201 204
f 204 201 180
f 55 257 56
f 56 257 201
f 204 85 56
f 56 85 52
f 86 122 53
f 53 122 79
f 212 215 86
f 86 215 122
f 211 216 212
f 212 216 215
f 192 280 211
f 211 280 216
f 191 240 192
f 192 240 280
f 249 124 7
f 7 124 8
f 124 127 8
f 8 127 241
f 127 267 241
f 241 267 10
f 10 267 9
f 9 267 11

